<svg width="258" height="100" viewBox="0 0 258 100" fill="none" xmlns="http://www.w3.org/2000/svg">
<g clip-path="url(#clip0_502_13096)">
<rect width="258" height="100" fill="#F2F4F7"/>
<g filter="url(#filter0_dd_502_13096)">
<rect width="140.523" height="135" transform="translate(61.5225 12)" fill="white"/>
<rect x="70.7275" y="41.4546" width="122.727" height="1" fill="#DCDBD5"/>
<rect x="125.341" y="44.5228" width="68.1136" height="27" rx="4.90909" fill="#E4EBF6"/>
<rect x="132.276" y="53.6348" width="9.20455" height="9.20455" rx="4.60227" fill="#155EEF"/>
<rect x="132.276" y="53.6348" width="9.20455" height="9.20455" rx="4.60227" stroke="#155EEF" stroke-width="0.613636"/>
<path fill-rule="evenodd" clip-rule="evenodd" d="M138.578 56.4548L136.015 58.9289L135.334 58.2021C135.209 58.0839 135.012 58.0767 134.869 58.177C134.729 58.2808 134.69 58.4634 134.776 58.6103L135.581 59.9207C135.66 60.0425 135.796 60.1177 135.95 60.1177C136.097 60.1177 136.237 60.0425 136.315 59.9207C136.444 59.7524 138.904 56.82 138.904 56.82C139.226 56.4906 138.836 56.2005 138.578 56.4512V56.4548Z" fill="white"/>
<path d="M152.94 56.4416H152.184C152.139 56.224 152.061 56.0328 151.949 55.8681C151.839 55.7033 151.705 55.565 151.546 55.4532C151.39 55.3393 151.216 55.2539 151.025 55.1969C150.833 55.14 150.634 55.1115 150.427 55.1115C150.048 55.1115 149.706 55.2071 149.398 55.3983C149.093 55.5894 148.85 55.8711 148.669 56.2433C148.49 56.6155 148.401 57.0721 148.401 57.6131C148.401 58.1541 148.49 58.6107 148.669 58.9829C148.85 59.3551 149.093 59.6368 149.398 59.828C149.706 60.0191 150.048 60.1147 150.427 60.1147C150.634 60.1147 150.833 60.0863 151.025 60.0293C151.216 59.9724 151.39 59.888 151.546 59.7761C151.705 59.6622 151.839 59.5229 151.949 59.3581C152.061 59.1914 152.139 59.0002 152.184 58.7846H152.94C152.883 59.1039 152.78 59.3897 152.629 59.6419C152.479 59.8941 152.292 60.1086 152.068 60.2856C151.844 60.4605 151.593 60.5937 151.314 60.6852C151.038 60.7767 150.742 60.8225 150.427 60.8225C149.894 60.8225 149.42 60.6923 149.005 60.432C148.59 60.1717 148.264 59.8015 148.026 59.3215C147.788 58.8415 147.669 58.2721 147.669 57.6131C147.669 56.9542 147.788 56.3847 148.026 55.9047C148.264 55.4247 148.59 55.0546 149.005 54.7942C149.42 54.5339 149.894 54.4037 150.427 54.4037C150.742 54.4037 151.038 54.4495 151.314 54.541C151.593 54.6325 151.844 54.7668 152.068 54.9437C152.292 55.1186 152.479 55.3322 152.629 55.5844C152.78 55.8345 152.883 56.1203 152.94 56.4416ZM154.92 54.4891V60.7371H154.163V54.4891H154.92ZM159.024 57.2775V57.9487H156.29V57.2775H159.024ZM162.475 54.4891V60.7371H161.718V55.2823H161.682L160.156 56.2952V55.5264L161.718 54.4891H162.475ZM164.125 59.4558V58.8334L166.871 54.4891H167.322V55.4532H167.017L164.943 58.7358V58.7846H168.64V59.4558H164.125ZM167.066 60.7371V59.2666V58.9768V54.4891H167.786V60.7371H167.066ZM171.785 60.8225C171.366 60.8225 170.996 60.7483 170.674 60.5998C170.355 60.4493 170.106 60.2429 169.927 59.9805C169.748 59.7161 169.66 59.4151 169.662 59.0775C169.66 58.8131 169.711 58.569 169.817 58.3453C169.923 58.1195 170.067 57.9314 170.25 57.7809C170.435 57.6284 170.642 57.5318 170.87 57.4911V57.4545C170.571 57.3772 170.333 57.2094 170.156 56.9511C169.979 56.6908 169.891 56.3948 169.893 56.0633C169.891 55.7461 169.972 55.4623 170.134 55.2122C170.297 54.962 170.521 54.7647 170.806 54.6203C171.092 54.4759 171.419 54.4037 171.785 54.4037C172.147 54.4037 172.47 54.4759 172.755 54.6203C173.04 54.7647 173.263 54.962 173.426 55.2122C173.591 55.4623 173.674 55.7461 173.676 56.0633C173.674 56.3948 173.584 56.6908 173.405 56.9511C173.228 57.2094 172.993 57.3772 172.7 57.4545V57.4911C172.926 57.5318 173.129 57.6284 173.31 57.7809C173.491 57.9314 173.636 58.1195 173.743 58.3453C173.851 58.569 173.906 58.8131 173.908 59.0775C173.906 59.4151 173.815 59.7161 173.634 59.9805C173.455 60.2429 173.206 60.4493 172.886 60.5998C172.569 60.7483 172.202 60.8225 171.785 60.8225ZM171.785 60.1513C172.068 60.1513 172.312 60.1056 172.517 60.0141C172.722 59.9225 172.881 59.7934 172.993 59.6266C173.105 59.4598 173.162 59.2646 173.164 59.0409C173.162 58.8049 173.101 58.5965 172.981 58.4155C172.861 58.2344 172.697 58.0921 172.49 57.9884C172.284 57.8846 172.049 57.8328 171.785 57.8328C171.518 57.8328 171.28 57.8846 171.071 57.9884C170.864 58.0921 170.7 58.2344 170.58 58.4155C170.462 58.5965 170.404 58.8049 170.406 59.0409C170.404 59.2646 170.458 59.4598 170.568 59.6266C170.679 59.7934 170.839 59.9225 171.047 60.0141C171.254 60.1056 171.5 60.1513 171.785 60.1513ZM171.785 57.186C172.009 57.186 172.207 57.1413 172.38 57.0518C172.555 56.9623 172.692 56.8372 172.792 56.6765C172.891 56.5159 172.942 56.3277 172.944 56.1121C172.942 55.9006 172.892 55.7166 172.795 55.56C172.697 55.4013 172.562 55.2793 172.389 55.1939C172.216 55.1064 172.015 55.0627 171.785 55.0627C171.551 55.0627 171.347 55.1064 171.172 55.1939C170.997 55.2793 170.862 55.4013 170.766 55.56C170.67 55.7166 170.624 55.9006 170.626 56.1121C170.624 56.3277 170.671 56.5159 170.769 56.6765C170.869 56.8372 171.006 56.9623 171.181 57.0518C171.356 57.1413 171.557 57.186 171.785 57.186ZM177.079 60.8225C176.66 60.8225 176.29 60.7483 175.968 60.5998C175.649 60.4493 175.4 60.2429 175.221 59.9805C175.042 59.7161 174.953 59.4151 174.955 59.0775C174.953 58.8131 175.005 58.569 175.111 58.3453C175.217 58.1195 175.361 57.9314 175.544 57.7809C175.729 57.6284 175.936 57.5318 176.163 57.4911V57.4545C175.864 57.3772 175.627 57.2094 175.45 56.9511C175.273 56.6908 175.185 56.3948 175.187 56.0633C175.185 55.7461 175.266 55.4623 175.428 55.2122C175.591 54.962 175.815 54.7647 176.099 54.6203C176.386 54.4759 176.713 54.4037 177.079 54.4037C177.441 54.4037 177.764 54.4759 178.049 54.6203C178.334 54.7647 178.557 54.962 178.72 55.2122C178.885 55.4623 178.968 55.7461 178.97 56.0633C178.968 56.3948 178.878 56.6908 178.699 56.9511C178.522 57.2094 178.287 57.3772 177.994 57.4545V57.4911C178.22 57.5318 178.423 57.6284 178.604 57.7809C178.785 57.9314 178.929 58.1195 179.037 58.3453C179.145 58.569 179.2 58.8131 179.202 59.0775C179.2 59.4151 179.108 59.7161 178.927 59.9805C178.748 60.2429 178.499 60.4493 178.18 60.5998C177.863 60.7483 177.496 60.8225 177.079 60.8225ZM177.079 60.1513C177.361 60.1513 177.605 60.1056 177.811 60.0141C178.016 59.9225 178.175 59.7934 178.287 59.6266C178.399 59.4598 178.456 59.2646 178.458 59.0409C178.456 58.8049 178.395 58.5965 178.275 58.4155C178.155 58.2344 177.991 58.0921 177.783 57.9884C177.578 57.8846 177.343 57.8328 177.079 57.8328C176.812 57.8328 176.574 57.8846 176.365 57.9884C176.157 58.0921 175.994 58.2344 175.874 58.4155C175.756 58.5965 175.698 58.8049 175.7 59.0409C175.698 59.2646 175.752 59.4598 175.861 59.6266C175.973 59.7934 176.133 59.9225 176.34 60.0141C176.548 60.1056 176.794 60.1513 177.079 60.1513ZM177.079 57.186C177.302 57.186 177.501 57.1413 177.674 57.0518C177.848 56.9623 177.986 56.8372 178.085 56.6765C178.185 56.5159 178.236 56.3277 178.238 56.1121C178.236 55.9006 178.186 55.7166 178.088 55.56C177.991 55.4013 177.856 55.2793 177.683 55.1939C177.51 55.1064 177.309 55.0627 177.079 55.0627C176.845 55.0627 176.64 55.1064 176.465 55.1939C176.291 55.2793 176.155 55.4013 176.06 55.56C175.964 55.7166 175.917 55.9006 175.919 56.1121C175.917 56.3277 175.965 56.5159 176.063 56.6765C176.162 56.8372 176.3 56.9623 176.475 57.0518C176.65 57.1413 176.851 57.186 177.079 57.186ZM180.225 59.4558V58.8334L182.97 54.4891H183.422V55.4532H183.117L181.042 58.7358V58.7846H184.74V59.4558H180.225ZM183.166 60.7371V59.2666V58.9768V54.4891H183.886V60.7371H183.166Z" fill="#1C1B17"/>
<rect x="131.477" y="73.9773" width="61.9773" height="27" rx="4.90909" fill="#E4EBF6"/>
<rect x="137.813" y="83.0893" width="9.20455" height="9.20455" rx="4.60227" fill="#155EEF"/>
<rect x="137.813" y="83.0893" width="9.20455" height="9.20455" rx="4.60227" stroke="#155EEF" stroke-width="0.613636"/>
<path fill-rule="evenodd" clip-rule="evenodd" d="M144.115 85.9093L141.552 88.3834L140.871 87.6566C140.746 87.5384 140.549 87.5313 140.406 87.6315C140.266 87.7354 140.227 87.918 140.313 88.0648L141.118 89.3753C141.197 89.497 141.333 89.5722 141.487 89.5722C141.634 89.5722 141.774 89.497 141.852 89.3753C141.981 89.207 144.441 86.2745 144.441 86.2745C144.763 85.9451 144.373 85.6551 144.115 85.9057V85.9093Z" fill="white"/>
<path d="M154.817 90.9726V83.1627H155.317V90.9726H154.817ZM156.501 85.5057C156.464 85.1965 156.316 84.9565 156.056 84.7857C155.795 84.6148 155.476 84.5294 155.098 84.5294C154.821 84.5294 154.579 84.5742 154.372 84.6636C154.166 84.7531 154.006 84.8762 153.89 85.0328C153.776 85.1894 153.719 85.3673 153.719 85.5667C153.719 85.7334 153.758 85.8768 153.838 85.9968C153.919 86.1148 154.023 86.2134 154.149 86.2927C154.275 86.37 154.407 86.4341 154.546 86.4849C154.684 86.5338 154.811 86.5734 154.927 86.6039L155.561 86.7748C155.724 86.8175 155.905 86.8765 156.104 86.9517C156.306 87.027 156.498 87.1297 156.681 87.2598C156.866 87.388 157.019 87.5527 157.139 87.7541C157.259 87.9554 157.319 88.2025 157.319 88.4954C157.319 88.833 157.23 89.1381 157.053 89.4106C156.878 89.6831 156.622 89.8997 156.284 90.0604C155.949 90.2211 155.541 90.3014 155.061 90.3014C154.614 90.3014 154.226 90.2292 153.899 90.0848C153.573 89.9404 153.317 89.7391 153.13 89.4808C152.945 89.2225 152.84 88.9225 152.816 88.5808H153.597C153.617 88.8167 153.696 89.012 153.835 89.1665C153.975 89.3191 154.152 89.433 154.366 89.5082C154.581 89.5815 154.813 89.6181 155.061 89.6181C155.35 89.6181 155.609 89.5713 155.839 89.4777C156.069 89.3821 156.251 89.2499 156.385 89.0811C156.519 88.9103 156.586 88.711 156.586 88.4832C156.586 88.2757 156.528 88.1069 156.413 87.9768C156.297 87.8466 156.144 87.7408 155.955 87.6595C155.766 87.5781 155.561 87.5069 155.342 87.4459L154.573 87.2263C154.085 87.0859 153.698 86.8856 153.414 86.6253C153.129 86.3649 152.987 86.0243 152.987 85.6033C152.987 85.2535 153.081 84.9484 153.27 84.688C153.461 84.4257 153.718 84.2223 154.039 84.0779C154.362 83.9315 154.723 83.8582 155.122 83.8582C155.525 83.8582 155.883 83.9304 156.196 84.0748C156.509 84.2172 156.757 84.4125 156.94 84.6606C157.125 84.9087 157.223 85.1904 157.233 85.5057H156.501ZM158.453 90.1916V89.6425L160.515 87.3849C160.757 87.1205 160.956 86.8907 161.113 86.6954C161.27 86.4982 161.386 86.3131 161.461 86.1402C161.538 85.9653 161.577 85.7823 161.577 85.5911C161.577 85.3714 161.524 85.1813 161.418 85.0206C161.314 84.8599 161.172 84.7358 160.991 84.6484C160.81 84.5609 160.607 84.5172 160.381 84.5172C160.141 84.5172 159.931 84.567 159.752 84.6667C159.575 84.7643 159.438 84.9016 159.341 85.0785C159.245 85.2555 159.197 85.4629 159.197 85.7009H158.477C158.477 85.3348 158.562 85.0135 158.73 84.7369C158.899 84.4603 159.129 84.2447 159.42 84.0901C159.713 83.9355 160.041 83.8582 160.405 83.8582C160.771 83.8582 161.096 83.9355 161.378 84.0901C161.661 84.2447 161.883 84.4531 162.043 84.7155C162.204 84.9779 162.284 85.2697 162.284 85.5911C162.284 85.8209 162.243 86.0456 162.159 86.2653C162.078 86.4829 161.936 86.7259 161.732 86.9944C161.531 87.2608 161.251 87.5863 160.893 87.9707L159.49 89.4716V89.5204H162.394V90.1916H158.453ZM163.85 90.1916L166.644 84.6636V84.6148H163.422V83.9437H167.425V84.6514L164.643 90.1916H163.85ZM168.574 89.3374L168.526 89.6669C168.491 89.8987 168.438 90.1469 168.367 90.4113C168.298 90.6757 168.226 90.9248 168.15 91.1587C168.075 91.3926 168.013 91.5787 167.964 91.717H167.415C167.442 91.5868 167.476 91.415 167.519 91.2014C167.562 90.9878 167.604 90.7489 167.647 90.4845C167.692 90.2221 167.728 89.9536 167.757 89.6791L167.793 89.3374H168.574ZM171.716 90.277C171.256 90.277 170.865 90.1519 170.541 89.9018C170.218 89.6496 169.971 89.2845 169.8 88.8066C169.629 88.3266 169.544 87.7469 169.544 87.0676C169.544 86.3924 169.629 85.8158 169.8 85.3379C169.973 84.8579 170.221 84.4918 170.544 84.2396C170.87 83.9854 171.26 83.8582 171.716 83.8582C172.171 83.8582 172.561 83.9854 172.884 84.2396C173.21 84.4918 173.458 84.8579 173.629 85.3379C173.802 85.8158 173.888 86.3924 173.888 87.0676C173.888 87.7469 173.803 88.3266 173.632 88.8066C173.461 89.2845 173.214 89.6496 172.89 89.9018C172.567 90.1519 172.176 90.277 171.716 90.277ZM171.716 89.6059C172.171 89.6059 172.525 89.3862 172.778 88.9469C173.03 88.5076 173.156 87.8812 173.156 87.0676C173.156 86.5266 173.098 86.066 172.982 85.6856C172.868 85.3053 172.703 85.0155 172.488 84.8162C172.274 84.6169 172.017 84.5172 171.716 84.5172C171.264 84.5172 170.912 84.7399 170.657 85.1853C170.403 85.6287 170.276 86.2561 170.276 87.0676C170.276 87.6086 170.333 88.0683 170.447 88.4466C170.561 88.8249 170.724 89.1127 170.938 89.3099C171.154 89.5072 171.413 89.6059 171.716 89.6059ZM177.085 90.277C176.626 90.277 176.234 90.1519 175.911 89.9018C175.587 89.6496 175.34 89.2845 175.169 88.8066C174.998 88.3266 174.913 87.7469 174.913 87.0676C174.913 86.3924 174.998 85.8158 175.169 85.3379C175.342 84.8579 175.59 84.4918 175.914 84.2396C176.239 83.9854 176.63 83.8582 177.085 83.8582C177.541 83.8582 177.93 83.9854 178.254 84.2396C178.579 84.4918 178.827 84.8579 178.998 85.3379C179.171 85.8158 179.257 86.3924 179.257 87.0676C179.257 87.7469 179.172 88.3266 179.001 88.8066C178.83 89.2845 178.583 89.6496 178.26 89.9018C177.936 90.1519 177.545 90.277 177.085 90.277ZM177.085 89.6059C177.541 89.6059 177.895 89.3862 178.147 88.9469C178.399 88.5076 178.525 87.8812 178.525 87.0676C178.525 86.5266 178.467 86.066 178.351 85.6856C178.237 85.3053 178.073 85.0155 177.857 84.8162C177.643 84.6169 177.386 84.5172 177.085 84.5172C176.634 84.5172 176.281 84.7399 176.027 85.1853C175.772 85.6287 175.645 86.2561 175.645 87.0676C175.645 87.6086 175.702 88.0683 175.816 88.4466C175.93 88.8249 176.094 89.1127 176.307 89.3099C176.523 89.5072 176.782 89.6059 177.085 89.6059ZM182.455 90.277C181.995 90.277 181.603 90.1519 181.28 89.9018C180.957 89.6496 180.709 89.2845 180.539 88.8066C180.368 88.3266 180.282 87.7469 180.282 87.0676C180.282 86.3924 180.368 85.8158 180.539 85.3379C180.712 84.8579 180.96 84.4918 181.283 84.2396C181.608 83.9854 181.999 83.8582 182.455 83.8582C182.91 83.8582 183.3 83.9854 183.623 84.2396C183.948 84.4918 184.197 84.8579 184.367 85.3379C184.54 85.8158 184.627 86.3924 184.627 87.0676C184.627 87.7469 184.541 88.3266 184.37 88.8066C184.2 89.2845 183.952 89.6496 183.629 89.9018C183.306 90.1519 182.914 90.277 182.455 90.277ZM182.455 89.6059C182.91 89.6059 183.264 89.3862 183.516 88.9469C183.768 88.5076 183.894 87.8812 183.894 87.0676C183.894 86.5266 183.837 86.066 183.721 85.6856C183.607 85.3053 183.442 85.0155 183.226 84.8162C183.013 84.6169 182.756 84.5172 182.455 84.5172C182.003 84.5172 181.65 84.7399 181.396 85.1853C181.142 85.6287 181.015 86.2561 181.015 87.0676C181.015 87.6086 181.072 88.0683 181.185 88.4466C181.299 88.8249 181.463 89.1127 181.677 89.3099C181.892 89.5072 182.151 89.6059 182.455 89.6059Z" fill="#1C1B17"/>
<rect x="52.3184" y="15.0682" width="61.9773" height="27" rx="4.90909" fill="#E4EBF6"/>
<rect x="58.6555" y="24.1803" width="9.20455" height="9.20455" rx="4.60227" fill="#155EEF"/>
<rect x="58.6555" y="24.1803" width="9.20455" height="9.20455" rx="4.60227" stroke="#155EEF" stroke-width="0.613636"/>
<path fill-rule="evenodd" clip-rule="evenodd" d="M64.9582 27.0003L62.3945 29.4744L61.7142 28.7476C61.5889 28.6294 61.3919 28.6223 61.2487 28.7225C61.1091 28.8263 61.0697 29.009 61.1556 29.1558L61.9612 30.4662C62.04 30.588 62.1761 30.6632 62.33 30.6632C62.4768 30.6632 62.6165 30.588 62.6952 30.4662C62.8241 30.298 65.284 27.3655 65.284 27.3655C65.6062 27.0361 65.216 26.7461 64.9582 26.9967V27.0003Z" fill="white"/>
<path d="M74.0746 31.2826V25.0346H76.1857C76.6739 25.0346 77.0745 25.118 77.3877 25.2848C77.7009 25.4495 77.9328 25.6763 78.0833 25.9651C78.2338 26.2539 78.3091 26.5824 78.3091 26.9505C78.3091 27.3186 78.2338 27.6451 78.0833 27.9298C77.9328 28.2145 77.702 28.4383 77.3908 28.601C77.0796 28.7616 76.682 28.842 76.1979 28.842H74.4895V28.1586H76.1735C76.5071 28.1586 76.7755 28.1098 76.9789 28.0122C77.1843 27.9145 77.3328 27.7762 77.4243 27.5973C77.5179 27.4163 77.5647 27.2007 77.5647 26.9505C77.5647 26.7003 77.5179 26.4817 77.4243 26.2946C77.3308 26.1075 77.1813 25.9631 76.9759 25.8614C76.7705 25.7577 76.4989 25.7058 76.1613 25.7058H74.8312V31.2826H74.0746ZM77.0155 28.4759L78.5531 31.2826H77.6745L76.1613 28.4759H77.0155ZM79.9969 31.3314C79.8464 31.3314 79.7172 31.2775 79.6094 31.1697C79.5016 31.0619 79.4477 30.9327 79.4477 30.7822C79.4477 30.6317 79.5016 30.5026 79.6094 30.3948C79.7172 30.287 79.8464 30.2331 79.9969 30.2331C80.1474 30.2331 80.2765 30.287 80.3843 30.3948C80.4921 30.5026 80.546 30.6317 80.546 30.7822C80.546 30.8819 80.5206 30.9734 80.4697 31.0568C80.4209 31.1402 80.3548 31.2073 80.2714 31.2582C80.1901 31.307 80.0986 31.3314 79.9969 31.3314ZM81.9356 31.2826V25.0346H85.7064V25.7058H82.6922V27.8169H85.5111V28.4881H82.6922V30.6114H85.7552V31.2826H81.9356ZM90.2916 27.6461L89.6449 27.8291C89.6042 27.7213 89.5442 27.6166 89.4649 27.5149C89.3876 27.4112 89.2818 27.3257 89.1476 27.2586C89.0134 27.1915 88.8415 27.158 88.632 27.158C88.3453 27.158 88.1063 27.2241 87.9151 27.3563C87.726 27.4864 87.6314 27.6522 87.6314 27.8535C87.6314 28.0325 87.6965 28.1739 87.8266 28.2776C87.9568 28.3813 88.1602 28.4677 88.4368 28.5369L89.1323 28.7077C89.5513 28.8094 89.8635 28.965 90.0689 29.1745C90.2743 29.3819 90.3771 29.6494 90.3771 29.9768C90.3771 30.2453 90.2998 30.4853 90.1452 30.6968C89.9927 30.9083 89.7791 31.0751 89.5045 31.1971C89.23 31.3192 88.9107 31.3802 88.5466 31.3802C88.0687 31.3802 87.6731 31.2765 87.3599 31.069C87.0467 30.8616 86.8484 30.5585 86.765 30.1599L87.4483 29.989C87.5134 30.2412 87.6365 30.4304 87.8175 30.5565C88.0005 30.6826 88.2395 30.7456 88.5344 30.7456C88.87 30.7456 89.1364 30.6745 89.3337 30.5321C89.533 30.3877 89.6327 30.2148 89.6327 30.0135C89.6327 29.8507 89.5757 29.7145 89.4618 29.6047C89.3479 29.4928 89.173 29.4094 88.9371 29.3545L88.1561 29.1714C87.727 29.0698 87.4117 28.9121 87.2104 28.6986C87.0111 28.483 86.9114 28.2135 86.9114 27.8901C86.9114 27.6257 86.9856 27.3918 87.1341 27.1885C87.2846 26.9851 87.489 26.8254 87.7473 26.7095C88.0076 26.5936 88.3025 26.5356 88.632 26.5356C89.0957 26.5356 89.4598 26.6373 89.7242 26.8407C89.9906 27.0441 90.1798 27.3125 90.2916 27.6461ZM93.4987 26.5966V27.2068H91.0703V26.5966H93.4987ZM91.7781 25.4739H92.4981V29.9402C92.4981 30.1436 92.5276 30.2962 92.5866 30.3978C92.6476 30.4975 92.7249 30.5646 92.8184 30.5992C92.914 30.6317 93.0147 30.648 93.1204 30.648C93.1998 30.648 93.2648 30.6439 93.3157 30.6358C93.3665 30.6256 93.4072 30.6175 93.4377 30.6114L93.5842 31.2582C93.5353 31.2765 93.4672 31.2948 93.3798 31.3131C93.2923 31.3334 93.1815 31.3436 93.0472 31.3436C92.8438 31.3436 92.6445 31.2999 92.4493 31.2124C92.2561 31.1249 92.0954 30.9917 91.9673 30.8128C91.8412 30.6338 91.7781 30.408 91.7781 30.1355V25.4739ZM95.9607 31.3924C95.6637 31.3924 95.3943 31.3365 95.1522 31.2246C94.9102 31.1107 94.718 30.947 94.5756 30.7334C94.4333 30.5178 94.3621 30.2575 94.3621 29.9524C94.3621 29.684 94.415 29.4664 94.5207 29.2996C94.6265 29.1308 94.7678 28.9986 94.9448 28.903C95.1217 28.8074 95.317 28.7362 95.5305 28.6894C95.7461 28.6406 95.9627 28.602 96.1803 28.5735C96.4651 28.5369 96.6959 28.5094 96.8729 28.4911C97.0518 28.4708 97.182 28.4372 97.2634 28.3905C97.3467 28.3437 97.3884 28.2623 97.3884 28.1464V28.122C97.3884 27.821 97.3061 27.5871 97.1413 27.4203C96.9786 27.2535 96.7315 27.1702 96.4 27.1702C96.0563 27.1702 95.7868 27.2454 95.5915 27.3959C95.3963 27.5464 95.259 27.7071 95.1797 27.8779L94.4963 27.6339C94.6184 27.3491 94.7811 27.1274 94.9844 26.9688C95.1899 26.8081 95.4136 26.6963 95.6556 26.6332C95.8997 26.5681 96.1397 26.5356 96.3756 26.5356C96.5261 26.5356 96.699 26.5539 96.8942 26.5905C97.0915 26.6251 97.2817 26.6973 97.4647 26.8071C97.6498 26.9169 97.8033 27.0827 97.9254 27.3044C98.0474 27.5261 98.1084 27.823 98.1084 28.1952V31.2826H97.3884V30.648H97.3518C97.303 30.7497 97.2217 30.8585 97.1078 30.9744C96.9939 31.0904 96.8424 31.189 96.6532 31.2704C96.4641 31.3517 96.2332 31.3924 95.9607 31.3924ZM96.0705 30.7456C96.3552 30.7456 96.5952 30.6897 96.7905 30.5778C96.9878 30.466 97.1362 30.3216 97.2359 30.1446C97.3376 29.9677 97.3884 29.7816 97.3884 29.5863V28.9274C97.3579 28.964 97.2908 28.9976 97.1871 29.0281C97.0854 29.0565 96.9674 29.082 96.8332 29.1043C96.701 29.1247 96.5719 29.143 96.4458 29.1592C96.3217 29.1735 96.221 29.1857 96.1437 29.1959C95.9566 29.2203 95.7817 29.2599 95.619 29.3148C95.4583 29.3677 95.3282 29.448 95.2285 29.5558C95.1309 29.6616 95.0821 29.806 95.0821 29.989C95.0821 30.2392 95.1746 30.4284 95.3597 30.5565C95.5468 30.6826 95.7837 30.7456 96.0705 30.7456ZM101.46 26.5966V27.2068H99.032V26.5966H101.46ZM99.7398 25.4739H100.46V29.9402C100.46 30.1436 100.489 30.2962 100.548 30.3978C100.609 30.4975 100.687 30.5646 100.78 30.5992C100.876 30.6317 100.976 30.648 101.082 30.648C101.161 30.648 101.227 30.6439 101.277 30.6358C101.328 30.6256 101.369 30.6175 101.399 30.6114L101.546 31.2582C101.497 31.2765 101.429 31.2948 101.341 31.3131C101.254 31.3334 101.143 31.3436 101.009 31.3436C100.806 31.3436 100.606 31.2999 100.411 31.2124C100.218 31.1249 100.057 30.9917 99.9289 30.8128C99.8028 30.6338 99.7398 30.408 99.7398 30.1355V25.4739ZM104.458 31.3802C104.006 31.3802 103.617 31.2805 103.289 31.0812C102.964 30.8799 102.713 30.5992 102.536 30.2392C102.361 29.8772 102.273 29.4562 102.273 28.9762C102.273 28.4962 102.361 28.0732 102.536 27.7071C102.713 27.339 102.959 27.0522 103.274 26.8468C103.591 26.6393 103.962 26.5356 104.385 26.5356C104.629 26.5356 104.87 26.5763 105.108 26.6576C105.346 26.739 105.562 26.8712 105.757 27.0542C105.953 27.2352 106.108 27.4752 106.224 27.7742C106.34 28.0732 106.398 28.4413 106.398 28.8786V29.1837H102.786V28.5613H105.666C105.666 28.2969 105.613 28.061 105.507 27.8535C105.404 27.6461 105.255 27.4823 105.062 27.3624C104.871 27.2424 104.645 27.1824 104.385 27.1824C104.098 27.1824 103.85 27.2535 103.64 27.3959C103.433 27.5362 103.273 27.7193 103.161 27.945C103.049 28.1708 102.993 28.4128 102.993 28.6711V29.086C102.993 29.4399 103.054 29.7399 103.176 29.986C103.301 30.2301 103.472 30.4162 103.692 30.5443C103.912 30.6704 104.167 30.7334 104.458 30.7334C104.647 30.7334 104.818 30.707 104.97 30.6541C105.125 30.5992 105.258 30.5178 105.37 30.4101C105.482 30.3002 105.568 30.164 105.629 30.0013L106.325 30.1965C106.252 30.4324 106.129 30.6399 105.956 30.8189C105.783 30.9958 105.569 31.1341 105.315 31.2338C105.061 31.3314 104.775 31.3802 104.458 31.3802Z" fill="#1C1B17"/>
<path d="M72.4825 84.874V91.5682H71.6719V84.874H72.4825ZM74.7746 88.5479V91.5682H74.0032V86.5475H74.7485V87.332H74.8139C74.9315 87.077 75.1102 86.8722 75.3499 86.7175C75.5896 86.5606 75.8991 86.4821 76.2782 86.4821C76.6182 86.4821 76.9156 86.5519 77.1706 86.6913C77.4255 86.8286 77.6238 87.0378 77.7655 87.3189C77.9071 87.5979 77.9779 87.9509 77.9779 88.378V91.5682H77.2065V88.4303C77.2065 88.0359 77.1041 87.7286 76.8993 87.5085C76.6944 87.2862 76.4133 87.1751 76.056 87.1751C75.8097 87.1751 75.5896 87.2285 75.3957 87.3353C75.2039 87.442 75.0525 87.5979 74.9413 87.8027C74.8302 88.0075 74.7746 88.2559 74.7746 88.5479ZM83.3132 86.5475L81.4566 91.5682H80.6721L78.8155 86.5475H79.6523L81.0382 90.5484H81.0905L82.4764 86.5475H83.3132ZM86.1913 91.6728C85.738 91.6728 85.3403 91.5649 84.9982 91.3492C84.6583 91.1335 84.3924 90.8316 84.2006 90.4438C84.0111 90.0559 83.9163 89.6026 83.9163 89.084C83.9163 88.561 84.0111 88.1045 84.2006 87.7144C84.3924 87.3244 84.6583 87.0215 84.9982 86.8057C85.3403 86.59 85.738 86.4821 86.1913 86.4821C86.6445 86.4821 87.0411 86.59 87.381 86.8057C87.7232 87.0215 87.989 87.3244 88.1786 87.7144C88.3704 88.1045 88.4662 88.561 88.4662 89.084C88.4662 89.6026 88.3704 90.0559 88.1786 90.4438C87.989 90.8316 87.7232 91.1335 87.381 91.3492C87.0411 91.5649 86.6445 91.6728 86.1913 91.6728ZM86.1913 90.9798C86.5356 90.9798 86.8188 90.8916 87.0411 90.7151C87.2634 90.5386 87.4279 90.3065 87.5347 90.0188C87.6414 89.7312 87.6948 89.4196 87.6948 89.084C87.6948 88.7484 87.6414 88.4357 87.5347 88.1459C87.4279 87.8561 87.2634 87.6218 87.0411 87.4431C86.8188 87.2644 86.5356 87.1751 86.1913 87.1751C85.847 87.1751 85.5637 87.2644 85.3414 87.4431C85.1191 87.6218 84.9546 87.8561 84.8478 88.1459C84.7411 88.4357 84.6877 88.7484 84.6877 89.084C84.6877 89.4196 84.7411 89.7312 84.8478 90.0188C84.9546 90.3065 85.1191 90.5386 85.3414 90.7151C85.5637 90.8916 85.847 90.9798 86.1913 90.9798ZM89.6438 91.5682V86.5475H90.4152V91.5682H89.6438ZM90.036 85.7107C89.8857 85.7107 89.756 85.6595 89.647 85.5571C89.5403 85.4547 89.4869 85.3316 89.4869 85.1878C89.4869 85.0439 89.5403 84.9208 89.647 84.8184C89.756 84.716 89.8857 84.6648 90.036 84.6648C90.1864 84.6648 90.3149 84.716 90.4217 84.8184C90.5307 84.9208 90.5852 85.0439 90.5852 85.1878C90.5852 85.3316 90.5307 85.4547 90.4217 85.5571C90.3149 85.6595 90.1864 85.7107 90.036 85.7107ZM93.8677 91.6728C93.397 91.6728 92.9917 91.5616 92.6518 91.3394C92.3118 91.1171 92.0503 90.8109 91.8673 90.4209C91.6842 90.0308 91.5927 89.5852 91.5927 89.084C91.5927 88.5741 91.6864 88.1241 91.8738 87.734C92.0634 87.3418 92.3271 87.0356 92.6648 86.8156C93.0048 86.5933 93.4014 86.4821 93.8546 86.4821C94.2076 86.4821 94.5258 86.5475 94.8091 86.6783C95.0924 86.809 95.3244 86.9921 95.5053 87.2274C95.6862 87.4627 95.7984 87.7373 95.842 88.0511H95.0706C95.0117 87.8223 94.881 87.6196 94.6783 87.4431C94.4779 87.2644 94.2076 87.1751 93.8677 87.1751C93.567 87.1751 93.3033 87.2536 93.0767 87.4104C92.8522 87.5652 92.6768 87.7842 92.5504 88.0674C92.4262 88.3486 92.3641 88.6787 92.3641 89.0579C92.3641 89.4457 92.4251 89.7835 92.5472 90.0711C92.6714 90.3588 92.8457 90.5821 93.0701 90.7412C93.2968 90.9003 93.5626 90.9798 93.8677 90.9798C94.0682 90.9798 94.2501 90.945 94.4136 90.8752C94.577 90.8055 94.7154 90.7053 94.8287 90.5745C94.942 90.4438 95.0226 90.2869 95.0706 90.1038H95.842C95.7984 90.4002 95.6905 90.6671 95.5184 90.9046C95.3484 91.14 95.1229 91.3274 94.8418 91.4669C94.5628 91.6041 94.2381 91.6728 93.8677 91.6728ZM99.0747 91.6728C98.5909 91.6728 98.1736 91.566 97.8228 91.3525C97.4741 91.1367 97.205 90.836 97.0154 90.4503C96.828 90.0624 96.7343 89.6113 96.7343 89.0971C96.7343 88.5828 96.828 88.1296 97.0154 87.7373C97.205 87.3429 97.4687 87.0356 97.8064 86.8156C98.1464 86.5933 98.543 86.4821 98.9962 86.4821C99.2577 86.4821 99.5159 86.5257 99.7709 86.6129C100.026 86.7001 100.258 86.8417 100.467 87.0378C100.676 87.2318 100.843 87.4889 100.967 87.8092C101.091 88.1296 101.154 88.524 101.154 88.9925V89.3193H97.2835V88.6525H100.369C100.369 88.3693 100.312 88.1165 100.199 87.8942C100.088 87.6719 99.9289 87.4965 99.7219 87.368C99.517 87.2394 99.2752 87.1751 98.9962 87.1751C98.689 87.1751 98.4231 87.2514 98.1987 87.4039C97.9764 87.5543 97.8053 87.7504 97.6855 87.9923C97.5656 88.2342 97.5057 88.4935 97.5057 88.7702V89.2147C97.5057 89.5939 97.5711 89.9153 97.7018 90.179C97.8348 90.4405 98.0189 90.6399 98.2542 90.7772C98.4896 90.9123 98.7631 90.9798 99.0747 90.9798C99.2773 90.9798 99.4604 90.9515 99.6238 90.8948C99.7894 90.836 99.9322 90.7488 100.052 90.6333C100.172 90.5157 100.264 90.3697 100.33 90.1953L101.075 90.4045C100.997 90.6573 100.865 90.8796 100.68 91.0713C100.494 91.2609 100.266 91.4091 99.9932 91.5159C99.7208 91.6205 99.4146 91.6728 99.0747 91.6728ZM107.099 86.5475V87.2013H104.497V86.5475H107.099ZM105.256 85.3447H106.027V90.13C106.027 90.3479 106.059 90.5113 106.122 90.6203C106.187 90.727 106.27 90.799 106.37 90.836C106.473 90.8709 106.581 90.8883 106.694 90.8883C106.779 90.8883 106.849 90.8839 106.903 90.8752C106.958 90.8643 107.001 90.8556 107.034 90.8491L107.191 91.542C107.138 91.5616 107.065 91.5813 106.972 91.6009C106.878 91.6227 106.759 91.6336 106.615 91.6336C106.398 91.6336 106.184 91.5867 105.975 91.493C105.768 91.3993 105.596 91.2566 105.458 91.0648C105.323 90.873 105.256 90.6312 105.256 90.3392V85.3447ZM110.245 91.6728C109.792 91.6728 109.394 91.5649 109.052 91.3492C108.712 91.1335 108.446 90.8316 108.255 90.4438C108.065 90.0559 107.97 89.6026 107.97 89.084C107.97 88.561 108.065 88.1045 108.255 87.7144C108.446 87.3244 108.712 87.0215 109.052 86.8057C109.394 86.59 109.792 86.4821 110.245 86.4821C110.699 86.4821 111.095 86.59 111.435 86.8057C111.777 87.0215 112.043 87.3244 112.233 87.7144C112.424 88.1045 112.52 88.561 112.52 89.084C112.52 89.6026 112.424 90.0559 112.233 90.4438C112.043 90.8316 111.777 91.1335 111.435 91.3492C111.095 91.5649 110.699 91.6728 110.245 91.6728ZM110.245 90.9798C110.59 90.9798 110.873 90.8916 111.095 90.7151C111.317 90.5386 111.482 90.3065 111.589 90.0188C111.696 89.7312 111.749 89.4196 111.749 89.084C111.749 88.7484 111.696 88.4357 111.589 88.1459C111.482 87.8561 111.317 87.6218 111.095 87.4431C110.873 87.2644 110.59 87.1751 110.245 87.1751C109.901 87.1751 109.618 87.2644 109.395 87.4431C109.173 87.6218 109.009 87.8561 108.902 88.1459C108.795 88.4357 108.742 88.7484 108.742 89.084C108.742 89.4196 108.795 89.7312 108.902 90.0188C109.009 90.3065 109.173 90.5386 109.395 90.7151C109.618 90.8916 109.901 90.9798 110.245 90.9798ZM115.881 86.5475V87.2013H113.279V86.5475H115.881ZM114.038 85.3447H114.809V90.13C114.809 90.3479 114.841 90.5113 114.904 90.6203C114.969 90.727 115.052 90.799 115.152 90.836C115.255 90.8709 115.363 90.8883 115.476 90.8883C115.561 90.8883 115.631 90.8839 115.685 90.8752C115.74 90.8643 115.783 90.8556 115.816 90.8491L115.973 91.542C115.921 91.5616 115.848 91.5813 115.754 91.6009C115.66 91.6227 115.541 91.6336 115.398 91.6336C115.18 91.6336 114.966 91.5867 114.757 91.493C114.55 91.3993 114.378 91.2566 114.24 91.0648C114.105 90.873 114.038 90.6312 114.038 90.3392V85.3447ZM118.519 91.6859C118.201 91.6859 117.912 91.6259 117.653 91.5061C117.394 91.384 117.188 91.2086 117.035 90.9798C116.883 90.7488 116.806 90.4699 116.806 90.143C116.806 89.8554 116.863 89.6222 116.976 89.4436C117.09 89.2627 117.241 89.121 117.431 89.0186C117.62 88.9162 117.829 88.8399 118.058 88.7898C118.289 88.7375 118.521 88.6961 118.754 88.6656C119.06 88.6264 119.307 88.597 119.496 88.5774C119.688 88.5556 119.828 88.5196 119.915 88.4695C120.004 88.4194 120.049 88.3322 120.049 88.208V88.1819C120.049 87.8593 119.961 87.6087 119.784 87.4301C119.61 87.2514 119.345 87.162 118.99 87.162C118.622 87.162 118.333 87.2427 118.124 87.4039C117.914 87.5652 117.767 87.7373 117.682 87.9204L116.95 87.6589C117.081 87.3538 117.255 87.1163 117.473 86.9463C117.693 86.7741 117.933 86.6543 118.192 86.5867C118.454 86.517 118.711 86.4821 118.964 86.4821C119.125 86.4821 119.31 86.5018 119.519 86.541C119.731 86.578 119.934 86.6554 120.131 86.7731C120.329 86.8907 120.493 87.0683 120.624 87.3059C120.755 87.5434 120.82 87.8615 120.82 88.2603V91.5682H120.049V90.8883H120.01C119.957 90.9973 119.87 91.1138 119.748 91.238C119.626 91.3623 119.464 91.4679 119.261 91.5551C119.058 91.6423 118.811 91.6859 118.519 91.6859ZM118.637 90.9929C118.942 90.9929 119.199 90.933 119.408 90.8131C119.62 90.6933 119.779 90.5386 119.885 90.349C119.994 90.1594 120.049 89.96 120.049 89.7508V89.0448C120.016 89.084 119.944 89.12 119.833 89.1526C119.724 89.1832 119.598 89.2104 119.454 89.2344C119.312 89.2562 119.174 89.2758 119.039 89.2932C118.906 89.3085 118.798 89.3215 118.715 89.3324C118.515 89.3586 118.327 89.4011 118.153 89.4599C117.981 89.5166 117.841 89.6026 117.735 89.7181C117.63 89.8314 117.578 89.9862 117.578 90.1823C117.578 90.4503 117.677 90.653 117.875 90.7902C118.076 90.9253 118.33 90.9929 118.637 90.9929ZM123 84.874V91.5682H122.228V84.874H123Z" fill="#6A6867"/>
<rect x="70.7275" y="51.2727" width="27.6136" height="3.06818" rx="1.53409" fill="#EEEEEC"/>
<rect x="70.7275" y="58.0227" width="43.5682" height="3.06818" rx="1.53409" fill="#EEEEEC"/>
</g>
</g>
<defs>
<filter id="filter0_dd_502_13096" x="45.3184" y="5" width="159.727" height="146" filterUnits="userSpaceOnUse" color-interpolation-filters="sRGB">
<feFlood flood-opacity="0" result="BackgroundImageFix"/>
<feColorMatrix in="SourceAlpha" type="matrix" values="0 0 0 0 0 0 0 0 0 0 0 0 0 0 0 0 0 0 127 0" result="hardAlpha"/>
<feOffset dx="-2" dy="-2"/>
<feGaussianBlur stdDeviation="2.5"/>
<feColorMatrix type="matrix" values="0 0 0 0 0.0627451 0 0 0 0 0.0941176 0 0 0 0 0.156863 0 0 0 0.39 0"/>
<feBlend mode="normal" in2="BackgroundImageFix" result="effect1_dropShadow_502_13096"/>
<feColorMatrix in="SourceAlpha" type="matrix" values="0 0 0 0 0 0 0 0 0 0 0 0 0 0 0 0 0 0 127 0" result="hardAlpha"/>
<feOffset dy="1"/>
<feGaussianBlur stdDeviation="1.5"/>
<feColorMatrix type="matrix" values="0 0 0 0 0.0627451 0 0 0 0 0.0941176 0 0 0 0 0.156863 0 0 0 0.1 0"/>
<feBlend mode="normal" in2="effect1_dropShadow_502_13096" result="effect2_dropShadow_502_13096"/>
<feBlend mode="normal" in="SourceGraphic" in2="effect2_dropShadow_502_13096" result="shape"/>
</filter>
<clipPath id="clip0_502_13096">
<rect width="258" height="100" fill="white"/>
</clipPath>
</defs>
</svg>
