<svg width="258" height="100" viewBox="0 0 258 100" fill="none" xmlns="http://www.w3.org/2000/svg">
<g clip-path="url(#clip0_502_13174)">
<rect width="258" height="100" fill="#EAECF0"/>
<g clip-path="url(#clip1_502_13174)">
<rect width="258" height="100" fill="#F2F4F7"/>
<g filter="url(#filter0_dd_502_13174)">
<rect x="16" y="34" width="226" height="32" rx="4" fill="white"/>
<rect x="16.5" y="34.5" width="225" height="31" rx="3.5" stroke="#D0D5DD"/>
<mask id="path-3-inside-1_502_13174" fill="white">
<path d="M16 38C16 35.7909 17.7909 34 20 34H162V66H20C17.7909 66 16 64.2091 16 62V38Z"/>
</mask>
<path d="M16 38C16 35.7909 17.7909 34 20 34H162V66H20C17.7909 66 16 64.2091 16 62V38Z" fill="white"/>
<path d="M15 38C15 35.2386 17.2386 33 20 33H162V35H20C18.3431 35 17 36.3431 17 38H15ZM162 67H20C17.2386 67 15 64.7614 15 62H17C17 63.6569 18.3431 65 20 65H162V67ZM20 67C17.2386 67 15 64.7614 15 62V38C15 35.2386 17.2386 33 20 33V35C18.3431 35 17 36.3431 17 38V62C17 63.6569 18.3431 65 20 65V67ZM20 65M162 34V66V34" fill="#D0D5DD" mask="url(#path-3-inside-1_502_13174)"/>
<path d="M26.2472 50.4062V55H25.0739V44.8182H26.2472V48.5568H26.3466C26.5256 48.1624 26.794 47.8492 27.152 47.6172C27.5133 47.3819 27.9938 47.2642 28.5938 47.2642C29.1141 47.2642 29.5698 47.3686 29.9609 47.5774C30.352 47.7829 30.6553 48.0994 30.8707 48.527C31.0895 48.9512 31.1989 49.4915 31.1989 50.1477V55H30.0256V50.2273C30.0256 49.6207 29.8681 49.1518 29.5533 48.8203C29.2417 48.4856 28.8092 48.3182 28.2557 48.3182C27.8712 48.3182 27.5265 48.3994 27.2216 48.5618C26.92 48.7242 26.6813 48.9612 26.5057 49.2727C26.3333 49.5843 26.2472 49.9621 26.2472 50.4062ZM36.6664 47.3636V48.358H32.709V47.3636H36.6664ZM33.8624 45.5341H35.0357V52.8125C35.0357 53.1439 35.0837 53.3925 35.1799 53.5582C35.2793 53.7206 35.4052 53.83 35.5577 53.8864C35.7135 53.9394 35.8775 53.9659 36.0499 53.9659C36.1792 53.9659 36.2852 53.9593 36.3681 53.946C36.4509 53.9295 36.5172 53.9162 36.5669 53.9062L36.8056 54.9602C36.726 54.9901 36.615 55.0199 36.4725 55.0497C36.33 55.0829 36.1493 55.0994 35.9306 55.0994C35.5991 55.0994 35.2743 55.0282 34.9561 54.8857C34.6413 54.7431 34.3794 54.526 34.1706 54.2344C33.9651 53.9427 33.8624 53.5748 33.8624 53.1307V45.5341ZM41.7523 47.3636V48.358H37.7949V47.3636H41.7523ZM38.9483 45.5341H40.1216V52.8125C40.1216 53.1439 40.1697 53.3925 40.2658 53.5582C40.3652 53.7206 40.4912 53.83 40.6436 53.8864C40.7994 53.9394 40.9635 53.9659 41.1358 53.9659C41.2651 53.9659 41.3712 53.9593 41.454 53.946C41.5369 53.9295 41.6032 53.9162 41.6529 53.9062L41.8915 54.9602C41.812 54.9901 41.7009 55.0199 41.5584 55.0497C41.4159 55.0829 41.2353 55.0994 41.0165 55.0994C40.6851 55.0994 40.3603 55.0282 40.0421 54.8857C39.7272 54.7431 39.4654 54.526 39.2566 54.2344C39.0511 53.9427 38.9483 53.5748 38.9483 53.1307V45.5341ZM43.5172 57.8636V47.3636H44.6507V48.5767H44.79C44.8761 48.4441 44.9954 48.2751 45.1479 48.0696C45.3037 47.8608 45.5257 47.6752 45.8141 47.5128C46.1058 47.3471 46.5002 47.2642 46.9973 47.2642C47.6403 47.2642 48.2071 47.425 48.6976 47.7464C49.1882 48.0679 49.571 48.5237 49.8461 49.1136C50.1212 49.7036 50.2587 50.3996 50.2587 51.2017C50.2587 52.0104 50.1212 52.7114 49.8461 53.3047C49.571 53.8946 49.1898 54.352 48.7026 54.6768C48.2154 54.9983 47.6536 55.1591 47.0172 55.1591C46.5267 55.1591 46.1339 55.0779 45.839 54.9155C45.544 54.7498 45.3169 54.5625 45.1578 54.3537C44.9988 54.1416 44.8761 53.9659 44.79 53.8267H44.6905V57.8636H43.5172ZM44.6706 51.1818C44.6706 51.7585 44.7551 52.2673 44.9242 52.7081C45.0932 53.1456 45.3401 53.4886 45.665 53.7372C45.9898 53.9825 46.3875 54.1051 46.8581 54.1051C47.3487 54.1051 47.758 53.9759 48.0861 53.7173C48.4176 53.4555 48.6661 53.1042 48.8319 52.6634C49.0009 52.2192 49.0854 51.7254 49.0854 51.1818C49.0854 50.6449 49.0025 50.161 48.8368 49.7301C48.6744 49.2959 48.4275 48.9529 48.0961 48.701C47.7679 48.4458 47.3553 48.3182 46.8581 48.3182C46.3809 48.3182 45.9798 48.4392 45.655 48.6811C45.3302 48.9197 45.0849 49.2545 44.9192 49.6854C44.7535 50.1129 44.6706 50.6117 44.6706 51.1818ZM52.9036 55.0795C52.6583 55.0795 52.4479 54.9917 52.2722 54.8161C52.0965 54.6404 52.0087 54.4299 52.0087 54.1847C52.0087 53.9394 52.0965 53.7289 52.2722 53.5533C52.4479 53.3776 52.6583 53.2898 52.9036 53.2898C53.1489 53.2898 53.3593 53.3776 53.535 53.5533C53.7106 53.7289 53.7985 53.9394 53.7985 54.1847C53.7985 54.3471 53.757 54.4962 53.6742 54.6321C53.5946 54.768 53.4869 54.8774 53.351 54.9602C53.2185 55.0398 53.0693 55.0795 52.9036 55.0795ZM52.9036 49.4119C52.6583 49.4119 52.4479 49.3241 52.2722 49.1484C52.0965 48.9728 52.0087 48.7623 52.0087 48.517C52.0087 48.2718 52.0965 48.0613 52.2722 47.8857C52.4479 47.71 52.6583 47.6222 52.9036 47.6222C53.1489 47.6222 53.3593 47.71 53.535 47.8857C53.7106 48.0613 53.7985 48.2718 53.7985 48.517C53.7985 48.6795 53.757 48.8286 53.6742 48.9645C53.5946 49.1004 53.4869 49.2098 53.351 49.2926C53.2185 49.3722 53.0693 49.4119 52.9036 49.4119ZM59.5034 44.3409L56.2221 56.5312H55.1483L58.4295 44.3409H59.5034ZM64.4936 44.3409L61.2124 56.5312H60.1385L63.4197 44.3409H64.4936ZM66.0435 55V44.8182H67.2168V48.5767H67.3162C67.4024 48.4441 67.5217 48.2751 67.6742 48.0696C67.83 47.8608 68.052 47.6752 68.3404 47.5128C68.632 47.3471 69.0265 47.2642 69.5236 47.2642C70.1666 47.2642 70.7334 47.425 71.2239 47.7464C71.7144 48.0679 72.0972 48.5237 72.3723 49.1136C72.6474 49.7036 72.785 50.3996 72.785 51.2017C72.785 52.0104 72.6474 52.7114 72.3723 53.3047C72.0972 53.8946 71.7161 54.352 71.2289 54.6768C70.7417 54.9983 70.1799 55.1591 69.5435 55.1591C69.053 55.1591 68.6602 55.0779 68.3652 54.9155C68.0703 54.7498 67.8432 54.5625 67.6841 54.3537C67.525 54.1416 67.4024 53.9659 67.3162 53.8267H67.177V55H66.0435ZM67.1969 51.1818C67.1969 51.7585 67.2814 52.2673 67.4505 52.7081C67.6195 53.1456 67.8664 53.4886 68.1912 53.7372C68.516 53.9825 68.9138 54.1051 69.3844 54.1051C69.8749 54.1051 70.2843 53.9759 70.6124 53.7173C70.9438 53.4555 71.1924 53.1042 71.3581 52.6634C71.5272 52.2192 71.6117 51.7254 71.6117 51.1818C71.6117 50.6449 71.5288 50.161 71.3631 49.7301C71.2007 49.2959 70.9538 48.9529 70.6223 48.701C70.2942 48.4458 69.8816 48.3182 69.3844 48.3182C68.9071 48.3182 68.5061 48.4392 68.1813 48.6811C67.8565 48.9197 67.6112 49.2545 67.4455 49.6854C67.2798 50.1129 67.1969 50.6117 67.1969 51.1818ZM74.5797 55V47.3636H75.7132V48.517H75.7928C75.932 48.1392 76.1839 47.8326 76.5485 47.5973C76.9131 47.362 77.324 47.2443 77.7814 47.2443C77.8676 47.2443 77.9753 47.246 78.1046 47.2493C78.2338 47.2526 78.3316 47.2576 78.3979 47.2642V48.4574C78.3581 48.4474 78.267 48.4325 78.1245 48.4126C77.9853 48.3894 77.8378 48.3778 77.682 48.3778C77.3108 48.3778 76.9793 48.4557 76.6877 48.6115C76.3993 48.764 76.1706 48.9761 76.0016 49.2479C75.8359 49.5163 75.753 49.8229 75.753 50.1676V55H74.5797ZM82.0359 55.179C81.552 55.179 81.1128 55.0878 80.7184 54.9055C80.324 54.7199 80.0108 54.4531 79.7788 54.1051C79.5468 53.7538 79.4308 53.3295 79.4308 52.8324C79.4308 52.3949 79.5169 52.0402 79.6893 51.7685C79.8616 51.4934 80.092 51.2779 80.3803 51.1222C80.6687 50.9664 80.9869 50.8504 81.3349 50.7741C81.6862 50.6946 82.0392 50.6316 82.3938 50.5852C82.8578 50.5256 83.234 50.4808 83.5224 50.451C83.814 50.4179 84.0262 50.3632 84.1587 50.2869C84.2946 50.2107 84.3626 50.0781 84.3626 49.8892V49.8494C84.3626 49.3589 84.2283 48.9777 83.9599 48.706C83.6947 48.4342 83.292 48.2983 82.7518 48.2983C82.1916 48.2983 81.7525 48.4209 81.4343 48.6662C81.1161 48.9115 80.8924 49.1733 80.7631 49.4517L79.6495 49.054C79.8484 48.59 80.1135 48.2287 80.445 47.9702C80.7797 47.7083 81.1443 47.526 81.5387 47.4233C81.9364 47.3172 82.3275 47.2642 82.712 47.2642C82.9573 47.2642 83.239 47.294 83.5572 47.3537C83.8787 47.41 84.1886 47.5277 84.4869 47.7067C84.7885 47.8857 85.0387 48.1558 85.2376 48.517C85.4364 48.8783 85.5359 49.3622 85.5359 49.9688V55H84.3626V53.9659H84.3029C84.2234 54.1316 84.0908 54.3089 83.9052 54.4979C83.7196 54.6868 83.4727 54.8475 83.1644 54.9801C82.8562 55.1127 82.48 55.179 82.0359 55.179ZM82.2148 54.125C82.6789 54.125 83.07 54.0339 83.3881 53.8516C83.7096 53.6693 83.9516 53.4339 84.114 53.1456C84.2797 52.8572 84.3626 52.554 84.3626 52.2358V51.1619C84.3129 51.2216 84.2035 51.2763 84.0344 51.326C83.8687 51.3724 83.6765 51.4138 83.4577 51.4503C83.2423 51.4834 83.0318 51.5133 82.8263 51.5398C82.6242 51.563 82.4601 51.5829 82.3342 51.5994C82.0292 51.6392 81.7442 51.7038 81.479 51.7933C81.2172 51.8795 81.0051 52.0104 80.8427 52.1861C80.6836 52.3584 80.604 52.5937 80.604 52.892C80.604 53.2997 80.7549 53.608 81.0565 53.8168C81.3614 54.0223 81.7475 54.125 82.2148 54.125ZM88.8507 50.4062V55H87.6774V47.3636H88.8109V48.5568H88.9103C89.0893 48.169 89.3611 47.8575 89.7257 47.6222C90.0903 47.3835 90.5609 47.2642 91.1376 47.2642C91.6547 47.2642 92.1071 47.3703 92.4949 47.5824C92.8826 47.7912 93.1842 48.1094 93.3997 48.5369C93.6151 48.9612 93.7228 49.4981 93.7228 50.1477V55H92.5495V50.2273C92.5495 49.6274 92.3938 49.16 92.0822 48.8253C91.7707 48.4872 91.3431 48.3182 90.7995 48.3182C90.425 48.3182 90.0903 48.3994 89.7953 48.5618C89.5036 48.7242 89.2733 48.9612 89.1042 49.2727C88.9352 49.5843 88.8507 49.9621 88.8507 50.4062ZM98.7504 55.1591C98.114 55.1591 97.5522 54.9983 97.065 54.6768C96.5778 54.352 96.1966 53.8946 95.9215 53.3047C95.6464 52.7114 95.5089 52.0104 95.5089 51.2017C95.5089 50.3996 95.6464 49.7036 95.9215 49.1136C96.1966 48.5237 96.5794 48.0679 97.07 47.7464C97.5605 47.425 98.1272 47.2642 98.7702 47.2642C99.2674 47.2642 99.6602 47.3471 99.9485 47.5128C100.24 47.6752 100.462 47.8608 100.615 48.0696C100.77 48.2751 100.891 48.4441 100.978 48.5767H101.077V44.8182H102.25V55H101.117V53.8267H100.978C100.891 53.9659 100.769 54.1416 100.61 54.3537C100.451 54.5625 100.224 54.7498 99.9286 54.9155C99.6336 55.0779 99.2409 55.1591 98.7504 55.1591ZM98.9094 54.1051C99.3801 54.1051 99.7778 53.9825 100.103 53.7372C100.427 53.4886 100.674 53.1456 100.843 52.7081C101.012 52.2673 101.097 51.7585 101.097 51.1818C101.097 50.6117 101.014 50.1129 100.848 49.6854C100.683 49.2545 100.437 48.9197 100.113 48.6811C99.7878 48.4392 99.3867 48.3182 98.9094 48.3182C98.4123 48.3182 97.998 48.4458 97.6665 48.701C97.3384 48.9529 97.0915 49.2959 96.9258 49.7301C96.7634 50.161 96.6822 50.6449 96.6822 51.1818C96.6822 51.7254 96.765 52.2192 96.9308 52.6634C97.0998 53.1042 97.3484 53.4555 97.6765 53.7173C98.0079 53.9759 98.4189 54.1051 98.9094 54.1051ZM104.562 55V47.3636H105.735V55H104.562ZM105.159 46.0909C104.93 46.0909 104.733 46.013 104.567 45.8572C104.405 45.7015 104.324 45.5142 104.324 45.2955C104.324 45.0767 104.405 44.8894 104.567 44.7337C104.733 44.5779 104.93 44.5 105.159 44.5C105.387 44.5 105.583 44.5779 105.745 44.7337C105.911 44.8894 105.994 45.0767 105.994 45.2955C105.994 45.5142 105.911 45.7015 105.745 45.8572C105.583 46.013 105.387 46.0909 105.159 46.0909ZM111.205 47.3636V48.358H107.248V47.3636H111.205ZM108.401 45.5341H109.575V52.8125C109.575 53.1439 109.623 53.3925 109.719 53.5582C109.818 53.7206 109.944 53.83 110.097 53.8864C110.253 53.9394 110.417 53.9659 110.589 53.9659C110.718 53.9659 110.824 53.9593 110.907 53.946C110.99 53.9295 111.056 53.9162 111.106 53.9062L111.345 54.9602C111.265 54.9901 111.154 55.0199 111.012 55.0497C110.869 55.0829 110.688 55.0994 110.47 55.0994C110.138 55.0994 109.813 55.0282 109.495 54.8857C109.18 54.7431 108.919 54.526 108.71 54.2344C108.504 53.9427 108.401 53.5748 108.401 53.1307V45.5341ZM113.845 47.3636L115.675 50.4858L117.504 47.3636H118.857L116.391 51.1818L118.857 55H117.504L115.675 52.0369L113.845 55H112.493L114.919 51.1818L112.493 47.3636H113.845ZM121.386 55.0795C121.141 55.0795 120.93 54.9917 120.755 54.8161C120.579 54.6404 120.491 54.4299 120.491 54.1847C120.491 53.9394 120.579 53.7289 120.755 53.5533C120.93 53.3776 121.141 53.2898 121.386 53.2898C121.631 53.2898 121.842 53.3776 122.017 53.5533C122.193 53.7289 122.281 53.9394 122.281 54.1847C122.281 54.3471 122.239 54.4962 122.157 54.6321C122.077 54.768 121.969 54.8774 121.833 54.9602C121.701 55.0398 121.552 55.0795 121.386 55.0795ZM124.386 55V47.3636H125.56V55H124.386ZM124.983 46.0909C124.754 46.0909 124.557 46.013 124.391 45.8572C124.229 45.7015 124.148 45.5142 124.148 45.2955C124.148 45.0767 124.229 44.8894 124.391 44.7337C124.557 44.5779 124.754 44.5 124.983 44.5C125.212 44.5 125.407 44.5779 125.57 44.7337C125.735 44.8894 125.818 45.0767 125.818 45.2955C125.818 45.5142 125.735 45.7015 125.57 45.8572C125.407 46.013 125.212 46.0909 124.983 46.0909ZM130.811 55.1591C130.122 55.1591 129.517 54.995 128.996 54.6669C128.479 54.3388 128.075 53.8797 127.783 53.2898C127.495 52.6998 127.351 52.0104 127.351 51.2216C127.351 50.4261 127.495 49.7318 127.783 49.1385C128.075 48.5452 128.479 48.0845 128.996 47.7564C129.517 47.4283 130.122 47.2642 130.811 47.2642C131.5 47.2642 132.104 47.4283 132.621 47.7564C133.141 48.0845 133.545 48.5452 133.834 49.1385C134.125 49.7318 134.271 50.4261 134.271 51.2216C134.271 52.0104 134.125 52.6998 133.834 53.2898C133.545 53.8797 133.141 54.3388 132.621 54.6669C132.104 54.995 131.5 55.1591 130.811 55.1591ZM130.811 54.1051C131.335 54.1051 131.765 53.9709 132.104 53.7024C132.442 53.4339 132.692 53.081 132.854 52.6435C133.017 52.206 133.098 51.732 133.098 51.2216C133.098 50.7112 133.017 50.2356 132.854 49.7947C132.692 49.3539 132.442 48.9976 132.104 48.7259C131.765 48.4541 131.335 48.3182 130.811 48.3182C130.287 48.3182 129.856 48.4541 129.518 48.7259C129.18 48.9976 128.93 49.3539 128.768 49.7947C128.605 50.2356 128.524 50.7112 128.524 51.2216C128.524 51.732 128.605 52.206 128.768 52.6435C128.93 53.081 129.18 53.4339 129.518 53.7024C129.856 53.9709 130.287 54.1051 130.811 54.1051ZM139.662 44.3409L136.38 56.5312H135.306L138.588 44.3409H139.662ZM141.052 55V47.3636H142.226V55H141.052ZM141.649 46.0909C141.42 46.0909 141.223 46.013 141.057 45.8572C140.895 45.7015 140.814 45.5142 140.814 45.2955C140.814 45.0767 140.895 44.8894 141.057 44.7337C141.223 44.5779 141.42 44.5 141.649 44.5C141.878 44.5 142.073 44.5779 142.236 44.7337C142.401 44.8894 142.484 45.0767 142.484 45.2955C142.484 45.5142 142.401 45.7015 142.236 45.8572C142.073 46.013 141.878 46.0909 141.649 46.0909ZM145.23 55.0795C144.984 55.0795 144.774 54.9917 144.598 54.8161C144.423 54.6404 144.335 54.4299 144.335 54.1847C144.335 53.9394 144.423 53.7289 144.598 53.5533C144.774 53.3776 144.984 53.2898 145.23 53.2898C145.475 53.2898 145.685 53.3776 145.861 53.5533C146.037 53.7289 146.125 53.9394 146.125 54.1847C146.125 54.3471 146.083 54.4962 146 54.6321C145.921 54.768 145.813 54.8774 145.677 54.9602C145.545 55.0398 145.395 55.0795 145.23 55.0795ZM149.048 55.0795C148.803 55.0795 148.592 54.9917 148.417 54.8161C148.241 54.6404 148.153 54.4299 148.153 54.1847C148.153 53.9394 148.241 53.7289 148.417 53.5533C148.592 53.3776 148.803 53.2898 149.048 53.2898C149.293 53.2898 149.504 53.3776 149.679 53.5533C149.855 53.7289 149.943 53.9394 149.943 54.1847C149.943 54.3471 149.901 54.4962 149.819 54.6321C149.739 54.768 149.631 54.8774 149.495 54.9602C149.363 55.0398 149.214 55.0795 149.048 55.0795ZM152.866 55.0795C152.621 55.0795 152.41 54.9917 152.235 54.8161C152.059 54.6404 151.971 54.4299 151.971 54.1847C151.971 53.9394 152.059 53.7289 152.235 53.5533C152.41 53.3776 152.621 53.2898 152.866 53.2898C153.111 53.2898 153.322 53.3776 153.498 53.5533C153.673 53.7289 153.761 53.9394 153.761 54.1847C153.761 54.3471 153.72 54.4962 153.637 54.6321C153.557 54.768 153.449 54.8774 153.314 54.9602C153.181 55.0398 153.032 55.0795 152.866 55.0795Z" fill="#101828"/>
<path d="M238 34.5C239.933 34.5 241.5 36.067 241.5 38V62C241.5 63.933 239.933 65.5 238 65.5H162.5V34.5H238Z" fill="white"/>
<path d="M238 34.5C239.933 34.5 241.5 36.067 241.5 38V62C241.5 63.933 239.933 65.5 238 65.5H162.5V34.5H238Z" stroke="#D0D5DD"/>
<g clip-path="url(#clip2_502_13174)">
<path fill-rule="evenodd" clip-rule="evenodd" d="M179.441 42.6667H184.559C184.911 42.6667 185.214 42.6666 185.464 42.687C185.727 42.7086 185.989 42.7561 186.242 42.8847C186.618 43.0764 186.924 43.3824 187.116 43.7587C187.244 44.0109 187.292 44.2731 187.313 44.5366C187.334 44.7864 187.334 45.0895 187.334 45.441V50.559C187.334 50.9105 187.334 51.2136 187.313 51.4634C187.292 51.7269 187.244 51.9891 187.116 52.2413C186.924 52.6176 186.618 52.9236 186.242 53.1153C185.989 53.2439 185.727 53.2914 185.464 53.313C185.214 53.3334 184.911 53.3333 184.559 53.3333H183.334V54.559C183.334 54.9105 183.334 55.2136 183.313 55.4634C183.292 55.7269 183.244 55.9891 183.116 56.2413C182.924 56.6176 182.618 56.9236 182.242 57.1153C181.989 57.2439 181.727 57.2914 181.464 57.313C181.214 57.3334 180.911 57.3333 180.559 57.3333H175.441C175.09 57.3333 174.787 57.3334 174.537 57.313C174.273 57.2914 174.011 57.2439 173.759 57.1153C173.383 56.9236 173.077 56.6176 172.885 56.2413C172.756 55.9891 172.709 55.7269 172.687 55.4634C172.667 55.2136 172.667 54.9105 172.667 54.559V49.441C172.667 49.0895 172.667 48.7864 172.687 48.5366C172.709 48.2731 172.756 48.0109 172.885 47.7587C173.077 47.3824 173.383 47.0764 173.759 46.8847C174.011 46.7561 174.273 46.7086 174.537 46.687C174.787 46.6666 175.09 46.6667 175.441 46.6667L176.667 46.6667L176.667 45.441C176.667 45.0895 176.667 44.7864 176.687 44.5366C176.709 44.2731 176.756 44.0109 176.885 43.7587C177.077 43.3824 177.383 43.0764 177.759 42.8847C178.011 42.7561 178.273 42.7086 178.537 42.687C178.787 42.6666 179.09 42.6667 179.441 42.6667ZM175.467 48C175.083 48 174.834 48.0005 174.646 48.016C174.464 48.0307 174.397 48.0559 174.364 48.0727C174.239 48.1366 174.137 48.2386 174.073 48.364C174.056 48.397 174.031 48.4641 174.016 48.6452C174.001 48.8341 174 49.0823 174 49.4667V54.5333C174 54.9177 174.001 55.1659 174.016 55.3548C174.031 55.5359 174.056 55.603 174.073 55.636C174.137 55.7614 174.239 55.8634 174.364 55.9273C174.397 55.9441 174.464 55.9693 174.646 55.984C174.834 55.9995 175.083 56 175.467 56H180.534C180.918 56 181.166 55.9995 181.355 55.984C181.536 55.9693 181.603 55.9441 181.636 55.9273C181.762 55.8634 181.864 55.7614 181.928 55.636C181.944 55.603 181.97 55.5359 181.984 55.3548C182 55.1659 182 54.9177 182 54.5333V49.4667C182 49.0823 182 48.8341 181.984 48.6452C181.97 48.4641 181.944 48.397 181.928 48.364C181.864 48.2386 181.762 48.1366 181.636 48.0727C181.603 48.0559 181.536 48.0307 181.355 48.016C181.166 48.0005 180.918 48 180.534 48H175.467ZM183.334 52V49.441C183.334 49.0895 183.334 48.7864 183.313 48.5366C183.292 48.2731 183.244 48.0109 183.116 47.7587C182.924 47.3824 182.618 47.0764 182.242 46.8847C181.989 46.7561 181.727 46.7086 181.464 46.687C181.214 46.6666 180.911 46.6667 180.559 46.6667L178 46.6667V45.4667C178 45.0823 178.001 44.8341 178.016 44.6452C178.031 44.4641 178.056 44.397 178.073 44.364C178.137 44.2386 178.239 44.1366 178.364 44.0727C178.397 44.0559 178.464 44.0307 178.646 44.016C178.834 44.0005 179.083 44 179.467 44H184.534C184.918 44 185.166 44.0005 185.355 44.016C185.536 44.0307 185.603 44.0559 185.636 44.0727C185.762 44.1366 185.864 44.2386 185.928 44.364C185.944 44.397 185.97 44.4641 185.984 44.6452C186 44.8341 186 45.0823 186 45.4667V50.5333C186 50.9177 186 51.1659 185.984 51.3548C185.97 51.5359 185.944 51.603 185.928 51.636C185.864 51.7614 185.762 51.8634 185.636 51.9273C185.603 51.9441 185.536 51.9693 185.355 51.984C185.166 51.9995 184.918 52 184.534 52H183.334Z" fill="#344054"/>
</g>
<path d="M205.719 48.2536H203.86C203.807 47.9486 203.709 47.6785 203.567 47.4432C203.424 47.2045 203.247 47.0024 203.035 46.8366C202.823 46.6709 202.581 46.5466 202.309 46.4638C202.04 46.3776 201.75 46.3345 201.439 46.3345C200.885 46.3345 200.395 46.4737 199.967 46.7521C199.54 47.0272 199.205 47.4316 198.963 47.9652C198.721 48.4955 198.6 49.1435 198.6 49.9091C198.6 50.688 198.721 51.3442 198.963 51.8778C199.208 52.4081 199.543 52.8092 199.967 53.081C200.395 53.3494 200.884 53.4837 201.434 53.4837C201.739 53.4837 202.024 53.4439 202.289 53.3643C202.558 53.2815 202.798 53.1605 203.01 53.0014C203.225 52.8423 203.406 52.6468 203.552 52.4148C203.701 52.1828 203.804 51.9176 203.86 51.6193L205.719 51.6293C205.65 52.1132 205.499 52.5672 205.267 52.9915C205.038 53.4157 204.738 53.7902 204.367 54.1151C203.996 54.4366 203.562 54.6884 203.065 54.8707C202.567 55.0497 202.016 55.1392 201.409 55.1392C200.514 55.1392 199.715 54.9321 199.013 54.5178C198.31 54.1035 197.757 53.5052 197.352 52.723C196.948 51.9408 196.746 51.0028 196.746 49.9091C196.746 48.812 196.95 47.8741 197.357 47.0952C197.765 46.313 198.32 45.7147 199.023 45.3004C199.725 44.8861 200.521 44.679 201.409 44.679C201.976 44.679 202.503 44.7585 202.99 44.9176C203.477 45.0767 203.911 45.3104 204.293 45.6186C204.674 45.9235 204.987 46.2981 205.232 46.7422C205.481 47.183 205.643 47.6868 205.719 48.2536ZM210.66 55.1491C209.914 55.1491 209.268 54.9851 208.721 54.657C208.174 54.3288 207.75 53.8698 207.448 53.2798C207.15 52.6899 207.001 52.0005 207.001 51.2116C207.001 50.4228 207.15 49.7318 207.448 49.1385C207.75 48.5452 208.174 48.0845 208.721 47.7564C209.268 47.4283 209.914 47.2642 210.66 47.2642C211.406 47.2642 212.052 47.4283 212.599 47.7564C213.146 48.0845 213.568 48.5452 213.867 49.1385C214.168 49.7318 214.319 50.4228 214.319 51.2116C214.319 52.0005 214.168 52.6899 213.867 53.2798C213.568 53.8698 213.146 54.3288 212.599 54.657C212.052 54.9851 211.406 55.1491 210.66 55.1491ZM210.67 53.7074C211.074 53.7074 211.412 53.5964 211.684 53.3743C211.956 53.1489 212.158 52.8473 212.291 52.4695C212.427 52.0916 212.494 51.6707 212.494 51.2067C212.494 50.7393 212.427 50.3168 212.291 49.9389C212.158 49.5578 211.956 49.2545 211.684 49.0291C211.412 48.8037 211.074 48.6911 210.67 48.6911C210.256 48.6911 209.911 48.8037 209.636 49.0291C209.364 49.2545 209.16 49.5578 209.024 49.9389C208.892 50.3168 208.825 50.7393 208.825 51.2067C208.825 51.6707 208.892 52.0916 209.024 52.4695C209.16 52.8473 209.364 53.1489 209.636 53.3743C209.911 53.5964 210.256 53.7074 210.67 53.7074ZM215.847 57.8636V47.3636H217.616V48.6264H217.721C217.814 48.4408 217.945 48.2436 218.114 48.0348C218.283 47.8227 218.511 47.642 218.8 47.4929C219.088 47.3404 219.456 47.2642 219.903 47.2642C220.493 47.2642 221.025 47.415 221.499 47.7166C221.977 48.0149 222.354 48.4574 222.633 49.044C222.915 49.6274 223.055 50.3433 223.055 51.1918C223.055 52.0303 222.918 52.7429 222.643 53.3295C222.368 53.9162 221.993 54.3636 221.519 54.6719C221.045 54.9801 220.508 55.1342 219.908 55.1342C219.471 55.1342 219.108 55.0613 218.82 54.9155C218.531 54.7696 218.299 54.594 218.124 54.3885C217.951 54.1797 217.817 53.9825 217.721 53.7969H217.646V57.8636H215.847ZM217.612 51.1818C217.612 51.6757 217.681 52.1082 217.82 52.4794C217.963 52.8506 218.167 53.1406 218.432 53.3494C218.7 53.5549 219.025 53.6577 219.406 53.6577C219.804 53.6577 220.137 53.5516 220.406 53.3395C220.674 53.1241 220.876 52.8307 221.012 52.4595C221.151 52.085 221.221 51.6591 221.221 51.1818C221.221 50.7079 221.153 50.2869 221.017 49.919C220.881 49.5511 220.679 49.2628 220.411 49.054C220.142 48.8452 219.807 48.7408 219.406 48.7408C219.022 48.7408 218.695 48.8419 218.427 49.044C218.158 49.2462 217.955 49.5296 217.815 49.8942C217.679 50.2588 217.612 50.688 217.612 51.1818ZM225.455 57.8636C225.21 57.8636 224.983 57.8438 224.774 57.804C224.569 57.7675 224.405 57.7244 224.282 57.6747L224.7 56.2727C224.962 56.349 225.195 56.3854 225.401 56.3821C225.606 56.3788 225.787 56.3142 225.943 56.1882C226.102 56.0656 226.236 55.8601 226.345 55.5717L226.499 55.1591L223.73 47.3636H225.639L227.399 53.1307H227.479L229.244 47.3636H231.158L228.1 55.9247C227.958 56.3291 227.769 56.6754 227.534 56.9638C227.298 57.2554 227.01 57.4775 226.669 57.63C226.33 57.7857 225.926 57.8636 225.455 57.8636Z" fill="#344054"/>
</g>
<g filter="url(#filter1_dd_502_13174)">
<rect x="20" y="64" width="59" height="22" rx="4" fill="#039855"/>
<rect x="20.5" y="64.5" width="58" height="21" rx="3.5" stroke="#039855"/>
<path d="M36.0176 69.5363L40.409 72.3906C40.5642 72.4915 40.6417 72.5419 40.6979 72.6092C40.7477 72.6687 40.7851 72.7376 40.8079 72.8118C40.8337 72.8956 40.8337 72.9881 40.8337 73.1732V77.45C40.8337 78.4301 40.8337 78.9201 40.6429 79.2945C40.4751 79.6238 40.2074 79.8915 39.8781 80.0593C39.5038 80.25 39.0138 80.25 38.0337 80.25H31.967C30.9869 80.25 30.4969 80.25 30.1225 80.0593C29.7932 79.8915 29.5255 79.6238 29.3577 79.2945C29.167 78.9201 29.167 78.4301 29.167 77.45V73.1732C29.167 72.9881 29.167 72.8956 29.1928 72.8118C29.2156 72.7376 29.2529 72.6687 29.3027 72.6092C29.3589 72.5419 29.4365 72.4915 29.5917 72.3906L33.983 69.5363M36.0176 69.5363C35.6494 69.2969 35.4653 69.1772 35.2669 69.1307C35.0916 69.0895 34.9091 69.0895 34.7337 69.1307C34.5354 69.1772 34.3512 69.2969 33.983 69.5363M36.0176 69.5363L39.6297 71.8841C40.031 72.1449 40.2316 72.2753 40.3011 72.4407C40.3618 72.5852 40.3618 72.7481 40.3011 72.8926C40.2316 73.058 40.031 73.1884 39.6297 73.4492L36.0176 75.7971C35.6494 76.0364 35.4653 76.1561 35.2669 76.2027C35.0916 76.2438 34.9091 76.2438 34.7337 76.2027C34.5354 76.1561 34.3512 76.0364 33.983 75.7971L30.3709 73.4492C29.9697 73.1884 29.769 73.058 29.6996 72.8926C29.6388 72.7481 29.6388 72.5852 29.6996 72.4407C29.769 72.2753 29.9697 72.1449 30.3709 71.8841L33.983 69.5363M40.542 79.0833L36.667 75.5833M33.3336 75.5833L29.4587 79.0833" stroke="white" stroke-linecap="round" stroke-linejoin="round"/>
<path d="M50.1113 73.0653C50.0659 72.6619 49.8784 72.3494 49.5488 72.1278C49.2193 71.9034 48.8045 71.7912 48.3045 71.7912C47.9466 71.7912 47.6369 71.848 47.3755 71.9616C47.1142 72.0724 46.911 72.2259 46.7662 72.4219C46.6241 72.6151 46.5531 72.8352 46.5531 73.0824C46.5531 73.2898 46.6014 73.4687 46.698 73.6193C46.7974 73.7699 46.9267 73.8963 47.0858 73.9986C47.2477 74.098 47.421 74.1818 47.6056 74.25C47.7903 74.3153 47.9679 74.3693 48.1383 74.4119L48.9906 74.6335C49.269 74.7017 49.5545 74.794 49.8471 74.9105C50.1397 75.027 50.411 75.1804 50.661 75.3707C50.911 75.5611 51.1127 75.7969 51.2662 76.0781C51.4224 76.3594 51.5005 76.696 51.5005 77.0881C51.5005 77.5824 51.3727 78.0213 51.117 78.4048C50.8642 78.7884 50.4963 79.0909 50.0133 79.3125C49.5332 79.5341 48.9522 79.6449 48.2704 79.6449C47.617 79.6449 47.0517 79.5412 46.5744 79.3338C46.0971 79.1264 45.7235 78.8324 45.4537 78.4517C45.1838 78.0682 45.0346 77.6136 45.0062 77.0881H46.3272C46.3528 77.4034 46.4551 77.6662 46.6341 77.8764C46.8159 78.0838 47.0474 78.2386 47.3287 78.3409C47.6127 78.4403 47.9238 78.4901 48.2619 78.4901C48.6341 78.4901 48.965 78.4318 49.2548 78.3153C49.5474 78.196 49.7775 78.0312 49.9451 77.821C50.1127 77.608 50.1966 77.3594 50.1966 77.0753C50.1966 76.8168 50.1227 76.6051 49.975 76.4403C49.8301 76.2756 49.6326 76.1392 49.3826 76.0312C49.1355 75.9233 48.8556 75.8281 48.5431 75.7457L47.5119 75.4645C46.813 75.2741 46.2591 74.9943 45.85 74.625C45.4437 74.2557 45.2406 73.767 45.2406 73.1591C45.2406 72.6562 45.377 72.2173 45.6497 71.8423C45.9224 71.4673 46.2917 71.1761 46.7576 70.9688C47.2235 70.7585 47.7491 70.6534 48.3343 70.6534C48.9252 70.6534 49.4466 70.7571 49.8983 70.9645C50.3528 71.1719 50.7108 71.4574 50.9721 71.821C51.2335 72.1818 51.3699 72.5966 51.3812 73.0653H50.1113ZM53.074 70.7727H54.6721L57.4505 77.5568H57.5527L60.3311 70.7727H61.9292V79.5H60.6763V73.1847H60.5953L58.0215 79.4872H56.9817L54.4078 73.1804H54.3269V79.5H53.074V70.7727ZM68.6035 73.0653C68.5581 72.6619 68.3706 72.3494 68.041 72.1278C67.7115 71.9034 67.2967 71.7912 66.7967 71.7912C66.4387 71.7912 66.1291 71.848 65.8677 71.9616C65.6064 72.0724 65.4032 72.2259 65.2583 72.4219C65.1163 72.6151 65.0453 72.8352 65.0453 73.0824C65.0453 73.2898 65.0936 73.4687 65.1902 73.6193C65.2896 73.7699 65.4189 73.8963 65.5779 73.9986C65.7399 74.098 65.9132 74.1818 66.0978 74.25C66.2825 74.3153 66.46 74.3693 66.6305 74.4119L67.4828 74.6335C67.7612 74.7017 68.0467 74.794 68.3393 74.9105C68.6319 75.027 68.9032 75.1804 69.1532 75.3707C69.4032 75.5611 69.6049 75.7969 69.7583 76.0781C69.9146 76.3594 69.9927 76.696 69.9927 77.0881C69.9927 77.5824 69.8649 78.0213 69.6092 78.4048C69.3564 78.7884 68.9885 79.0909 68.5055 79.3125C68.0254 79.5341 67.4444 79.6449 66.7626 79.6449C66.1092 79.6449 65.5439 79.5412 65.0666 79.3338C64.5893 79.1264 64.2157 78.8324 63.9458 78.4517C63.676 78.0682 63.5268 77.6136 63.4984 77.0881H64.8194C64.845 77.4034 64.9473 77.6662 65.1262 77.8764C65.3081 78.0838 65.5396 78.2386 65.8208 78.3409C66.1049 78.4403 66.416 78.4901 66.7541 78.4901C67.1262 78.4901 67.4572 78.4318 67.747 78.3153C68.0396 78.196 68.2697 78.0312 68.4373 77.821C68.6049 77.608 68.6887 77.3594 68.6887 77.0753C68.6887 76.8168 68.6149 76.6051 68.4672 76.4403C68.3223 76.2756 68.1248 76.1392 67.8748 76.0312C67.6277 75.9233 67.3478 75.8281 67.0353 75.7457L66.0041 75.4645C65.3052 75.2741 64.7512 74.9943 64.3422 74.625C63.9359 74.2557 63.7328 73.767 63.7328 73.1591C63.7328 72.6562 63.8691 72.2173 64.1419 71.8423C64.4146 71.4673 64.7839 71.1761 65.2498 70.9688C65.7157 70.7585 66.2413 70.6534 66.8265 70.6534C67.4174 70.6534 67.9387 70.7571 68.3904 70.9645C68.845 71.1719 69.2029 71.4574 69.4643 71.821C69.7257 72.1818 69.862 72.5966 69.8734 73.0653H68.6035Z" fill="white"/>
</g>
</g>
</g>
<defs>
<filter id="filter0_dd_502_13174" x="9" y="27" width="236" height="43" filterUnits="userSpaceOnUse" color-interpolation-filters="sRGB">
<feFlood flood-opacity="0" result="BackgroundImageFix"/>
<feColorMatrix in="SourceAlpha" type="matrix" values="0 0 0 0 0 0 0 0 0 0 0 0 0 0 0 0 0 0 127 0" result="hardAlpha"/>
<feOffset dx="-2" dy="-2"/>
<feGaussianBlur stdDeviation="2.5"/>
<feColorMatrix type="matrix" values="0 0 0 0 0.0627451 0 0 0 0 0.0941176 0 0 0 0 0.156863 0 0 0 0.39 0"/>
<feBlend mode="normal" in2="BackgroundImageFix" result="effect1_dropShadow_502_13174"/>
<feColorMatrix in="SourceAlpha" type="matrix" values="0 0 0 0 0 0 0 0 0 0 0 0 0 0 0 0 0 0 127 0" result="hardAlpha"/>
<feOffset dy="1"/>
<feGaussianBlur stdDeviation="1.5"/>
<feColorMatrix type="matrix" values="0 0 0 0 0.0627451 0 0 0 0 0.0941176 0 0 0 0 0.156863 0 0 0 0.1 0"/>
<feBlend mode="normal" in2="effect1_dropShadow_502_13174" result="effect2_dropShadow_502_13174"/>
<feBlend mode="normal" in="SourceGraphic" in2="effect2_dropShadow_502_13174" result="shape"/>
</filter>
<filter id="filter1_dd_502_13174" x="13" y="57" width="69" height="33" filterUnits="userSpaceOnUse" color-interpolation-filters="sRGB">
<feFlood flood-opacity="0" result="BackgroundImageFix"/>
<feColorMatrix in="SourceAlpha" type="matrix" values="0 0 0 0 0 0 0 0 0 0 0 0 0 0 0 0 0 0 127 0" result="hardAlpha"/>
<feOffset dx="-2" dy="-2"/>
<feGaussianBlur stdDeviation="2.5"/>
<feColorMatrix type="matrix" values="0 0 0 0 0.0627451 0 0 0 0 0.0941176 0 0 0 0 0.156863 0 0 0 0.39 0"/>
<feBlend mode="normal" in2="BackgroundImageFix" result="effect1_dropShadow_502_13174"/>
<feColorMatrix in="SourceAlpha" type="matrix" values="0 0 0 0 0 0 0 0 0 0 0 0 0 0 0 0 0 0 127 0" result="hardAlpha"/>
<feOffset dy="1"/>
<feGaussianBlur stdDeviation="1.5"/>
<feColorMatrix type="matrix" values="0 0 0 0 0.0627451 0 0 0 0 0.0941176 0 0 0 0 0.156863 0 0 0 0.1 0"/>
<feBlend mode="normal" in2="effect1_dropShadow_502_13174" result="effect2_dropShadow_502_13174"/>
<feBlend mode="normal" in="SourceGraphic" in2="effect2_dropShadow_502_13174" result="shape"/>
</filter>
<clipPath id="clip0_502_13174">
<rect width="258" height="100" fill="white"/>
</clipPath>
<clipPath id="clip1_502_13174">
<rect width="258" height="100" fill="white"/>
</clipPath>
<clipPath id="clip2_502_13174">
<rect width="16" height="16" fill="white" transform="translate(172 42)"/>
</clipPath>
</defs>
</svg>
