<svg width="155" height="200" viewBox="0 0 155 200" fill="none" xmlns="http://www.w3.org/2000/svg">
<g clip-path="url(#clip0_264_28960)">
<path d="M88.2748 64.0559C88.2748 58.3715 83.6588 53.7634 77.9646 53.7634C72.2704 53.7634 67.6543 58.3715 67.6543 64.0559V207.721C67.6543 213.405 72.2704 218.013 77.9646 218.013C83.6588 218.013 88.2748 213.405 88.2748 207.721V64.0559Z" fill="#FFD729"/>
<path d="M77.9651 72.2041C82.2358 72.2041 85.6978 68.7481 85.6978 64.4848C85.6978 60.2215 82.2358 56.7655 77.9651 56.7655C73.6945 56.7655 70.2324 60.2215 70.2324 64.4848C70.2324 68.7481 73.6945 72.2041 77.9651 72.2041Z" fill="white"/>
<path d="M73.1137 66.2001V65.6297L74.4484 64.3963C74.5618 64.2865 74.6572 64.1879 74.7341 64.1004C74.8123 64.0125 74.8711 63.9267 74.9115 63.8427C74.9521 63.7563 74.9728 63.6619 74.9721 63.5665C74.9721 63.4571 74.9467 63.3628 74.8969 63.2834C74.8475 63.2037 74.7764 63.1396 74.692 63.0986C74.6003 63.0538 74.4993 63.0313 74.3973 63.033C74.2826 63.033 74.1825 63.0561 74.097 63.1025C74.0127 63.1475 73.9438 63.2169 73.8994 63.3014C73.8509 63.3972 73.8269 63.5034 73.8298 63.6107H73.0771C73.0771 63.3658 73.1326 63.1531 73.2438 62.9725C73.3547 62.7924 73.5106 62.653 73.7108 62.5544C73.911 62.4553 74.1413 62.406 74.4025 62.406C74.6709 62.406 74.9046 62.4536 75.1036 62.5488C75.2926 62.6332 75.4544 62.7687 75.5705 62.9399C75.6818 63.1067 75.7372 63.298 75.7372 63.5137C75.7372 63.6548 75.7093 63.7946 75.653 63.9323C75.598 64.07 75.4996 64.2226 75.3583 64.3907C75.2165 64.5576 75.0172 64.7583 74.7594 64.992L74.2121 65.5276V65.5529H75.7866V66.2001H73.1137ZM77.831 66.2824C77.5162 66.2811 77.2451 66.2039 77.0183 66.0504C76.7923 65.8969 76.6183 65.6743 76.4963 65.3831C76.3756 65.0919 76.3159 64.7415 76.3172 64.3324C76.3172 63.9241 76.3773 63.5763 76.4984 63.289C76.6204 63.0013 76.7944 62.7825 77.02 62.6329C77.2468 62.4819 77.5174 62.406 77.831 62.406C78.1447 62.406 78.4144 62.4819 78.64 62.6329C78.8672 62.7838 79.0416 63.003 79.1636 63.2907C79.2857 63.5772 79.3462 63.9241 79.3449 64.3324C79.3449 64.7428 79.2839 65.0936 79.1619 65.3848C79.0412 65.676 78.8677 65.8986 78.6421 66.0521C78.4162 66.2056 78.1459 66.2824 77.831 66.2824ZM77.831 65.6262C78.0458 65.6262 78.2172 65.5186 78.3453 65.3029C78.4737 65.0872 78.5369 64.7638 78.5356 64.3324C78.5356 64.0485 78.5064 63.8122 78.4479 63.6231C78.3904 63.4344 78.3088 63.2924 78.2026 63.1977C78.1018 63.1041 77.9687 63.0529 77.831 63.0549C77.6175 63.0549 77.4466 63.1616 77.3185 63.3748C77.1901 63.5879 77.1257 63.907 77.1244 64.3324C77.1244 64.6197 77.1531 64.8599 77.2103 65.0524C77.2691 65.2437 77.3512 65.3874 77.4577 65.4839C77.5638 65.5786 77.688 65.6262 77.831 65.6262ZM81.3804 66.2824C81.0655 66.2811 80.7944 66.2039 80.5676 66.0504C80.3416 65.8969 80.1676 65.6743 80.0456 65.3831C79.9249 65.0919 79.8652 64.7415 79.866 64.3324C79.866 63.9241 79.9266 63.5763 80.0473 63.289C80.1693 63.0013 80.3433 62.7825 80.5693 62.6329C80.7961 62.4819 81.0663 62.406 81.3804 62.406C81.694 62.406 81.9637 62.4819 82.1893 62.6329C82.4165 62.7838 82.591 63.003 82.713 63.2907C82.835 63.5772 82.8955 63.9241 82.8942 64.3324C82.8942 64.7428 82.8332 65.0936 82.7112 65.3848C82.5901 65.676 82.417 65.8986 82.191 66.0521C81.9655 66.2056 81.6952 66.2824 81.3804 66.2824ZM81.3804 65.6262C81.5952 65.6262 81.7666 65.5186 81.8946 65.3029C82.0226 65.0872 82.0862 64.7638 82.0849 64.3324C82.0849 64.0485 82.0557 63.8122 81.9973 63.6231C81.9397 63.4344 81.8581 63.2924 81.752 63.1977C81.6511 63.1041 81.518 63.053 81.3804 63.0549C81.1664 63.0549 80.9959 63.1616 80.8674 63.3748C80.7394 63.5879 80.675 63.907 80.6737 64.3324C80.6737 64.6197 80.702 64.8599 80.7596 65.0524C80.818 65.2437 80.9005 65.3874 81.0066 65.4839C81.1127 65.5786 81.2373 65.6262 81.3804 65.6262Z" fill="black"/>
<path d="M60.7817 99.6505C60.7817 93.9662 56.1656 89.3581 50.4714 89.3581C44.7772 89.3581 40.1611 93.9662 40.1611 99.6505V207.721C40.1611 213.405 44.7772 218.013 50.4714 218.013C56.1656 218.013 60.7817 213.405 60.7817 207.721V99.6505Z" fill="#FF692E"/>
<path d="M50.471 106.941C54.7416 106.941 58.2037 103.485 58.2037 99.2216C58.2037 94.9583 54.7416 91.5023 50.471 91.5023C46.2003 91.5023 42.7383 94.9583 42.7383 99.2216C42.7383 103.485 46.2003 106.941 50.471 106.941Z" fill="#ECEEF1"/>
<path d="M47.6811 97.1945V100.937H46.8885V97.9454H46.8666L46.0078 98.4828V97.7812L46.9362 97.1945H47.6811ZM48.5721 100.937V100.367L49.9068 99.1333C50.0202 99.0235 50.1156 98.9249 50.1925 98.8374C50.2707 98.7495 50.3295 98.6637 50.3699 98.5797C50.4105 98.4933 50.4312 98.3989 50.4305 98.3035C50.4305 98.1941 50.4056 98.0998 50.3553 98.0205C50.306 97.9407 50.2349 97.8765 50.1504 97.8356C50.0587 97.7908 49.9577 97.7683 49.8557 97.77C49.741 97.77 49.6409 97.7932 49.5554 97.8395C49.4712 97.8847 49.4023 97.954 49.3578 98.0385C49.3093 98.1342 49.2853 98.2404 49.2882 98.3477H48.5355C48.5355 98.1028 48.5914 97.8901 48.7022 97.7095C48.8135 97.5294 48.969 97.39 49.1692 97.2914C49.3694 97.1923 49.6001 97.143 49.8609 97.143C50.1293 97.143 50.3635 97.1906 50.5624 97.2858C50.7621 97.3798 50.9181 97.5101 51.0289 97.677C51.1402 97.8438 51.1956 98.035 51.1956 98.2507C51.1956 98.3918 51.1677 98.5317 51.1114 98.6693C51.0564 98.807 50.958 98.9596 50.8167 99.1278C50.6749 99.2946 50.4756 99.4953 50.2178 99.729L49.6705 100.265V100.29H51.245V100.937H48.5721ZM53.2894 101.019C52.9746 101.018 52.7035 100.941 52.4767 100.787C52.2507 100.634 52.0771 100.411 51.9547 100.12C51.834 99.8289 51.7743 99.4785 51.7756 99.0694C51.7756 98.6612 51.8357 98.3134 51.9568 98.026C52.0788 97.7383 52.2528 97.5196 52.4784 97.3699C52.7056 97.2189 52.9758 97.143 53.2894 97.143C53.6031 97.143 53.8728 97.2189 54.0984 97.3699C54.3256 97.5209 54.5 97.74 54.622 98.0278C54.7441 98.3142 54.8046 98.6612 54.8033 99.0694C54.8033 99.4798 54.7423 99.8306 54.6203 100.122C54.4996 100.413 54.3261 100.636 54.1005 100.789C53.8746 100.943 53.6043 101.019 53.2894 101.019ZM53.2894 100.363C53.5042 100.363 53.6756 100.256 53.8037 100.04C53.9321 99.8242 53.9953 99.5008 53.9944 99.0694C53.9944 98.7855 53.9648 98.5492 53.9063 98.3601C53.8492 98.1714 53.7672 98.0295 53.661 97.9347C53.5602 97.8411 53.4271 97.7899 53.2894 97.7919C53.0759 97.7919 52.905 97.8987 52.7769 98.1118C52.6485 98.3249 52.5841 98.644 52.5828 99.0694C52.5828 99.3568 52.6115 99.5969 52.6687 99.7895C52.7275 99.9807 52.8096 100.124 52.9161 100.221C53.0222 100.316 53.1468 100.363 53.2894 100.363Z" fill="black"/>
<path d="M33.2875 109.514C33.2875 103.83 28.6715 99.2217 22.9773 99.2217C17.2831 99.2217 12.667 103.83 12.667 109.514V200.002C12.667 205.686 17.2831 210.294 22.9773 210.294C28.6715 210.294 33.2875 205.686 33.2875 200.002V109.514Z" fill="#ECEEF1"/>
<path d="M22.9778 118.091C27.2485 118.091 30.7105 114.635 30.7105 110.372C30.7105 106.109 27.2485 102.653 22.9778 102.653C18.7072 102.653 15.2451 106.109 15.2451 110.372C15.2451 114.635 18.7072 118.091 22.9778 118.091Z" fill="#D9D9D9"/>
<path d="M20.1865 108.345V112.087H19.3943V109.096H19.3724L18.5137 109.633V108.931L19.4416 108.345H20.1865ZM22.5476 112.17C22.2327 112.168 21.962 112.091 21.7348 111.938C21.5092 111.784 21.3352 111.561 21.2132 111.27C21.0925 110.979 21.0328 110.629 21.0337 110.22C21.0337 109.811 21.0938 109.463 21.215 109.176C21.337 108.888 21.511 108.67 21.7369 108.52C21.9637 108.369 22.234 108.293 22.5476 108.293C22.8612 108.293 23.131 108.369 23.3569 108.52C23.5837 108.671 23.7586 108.89 23.8806 109.178C24.0026 109.464 24.0627 109.811 24.0619 110.22C24.0619 110.63 24.0005 110.981 23.8785 111.272C23.7577 111.563 23.5846 111.786 23.3586 111.939C23.1331 112.093 22.8625 112.17 22.5476 112.17ZM22.5476 111.513C22.7624 111.513 22.9342 111.406 23.0622 111.19C23.1902 110.974 23.2538 110.651 23.2525 110.22C23.2525 109.936 23.2233 109.699 23.1645 109.51C23.1073 109.322 23.0257 109.18 22.9192 109.085C22.8184 108.991 22.6853 108.94 22.5476 108.942C22.3341 108.942 22.1631 109.049 22.0351 109.262C21.907 109.475 21.8422 109.794 21.8409 110.22C21.8409 110.507 21.8697 110.747 21.9272 110.94C21.9857 111.131 22.0681 111.275 22.1742 111.371C22.2804 111.466 22.4049 111.513 22.5476 111.513ZM26.0969 112.17C25.782 112.168 25.5109 112.091 25.2841 111.938C25.0581 111.784 24.8846 111.561 24.7626 111.27C24.6414 110.979 24.5817 110.629 24.583 110.22C24.583 109.811 24.6436 109.463 24.7643 109.176C24.8863 108.888 25.0603 108.67 25.2858 108.52C25.5131 108.369 25.7833 108.293 26.0969 108.293C26.4105 108.293 26.6803 108.369 26.9062 108.52C27.1331 108.671 27.3075 108.89 27.4295 109.178C27.5515 109.464 27.6121 109.811 27.6108 110.22C27.6108 110.63 27.5498 110.981 27.4278 111.272C27.307 111.563 27.1335 111.786 26.908 111.939C26.682 112.093 26.4118 112.17 26.0969 112.17ZM26.0969 111.513C26.3117 111.513 26.4831 111.406 26.6115 111.19C26.7396 110.974 26.8031 110.651 26.8018 110.22C26.8018 109.936 26.7726 109.699 26.7138 109.51C26.6566 109.322 26.5746 109.18 26.4685 109.085C26.3677 108.991 26.2345 108.94 26.0969 108.942C25.8834 108.942 25.7124 109.049 25.5844 109.262C25.4564 109.475 25.3915 109.794 25.3902 110.22C25.3902 110.507 25.419 110.747 25.4761 110.94C25.535 111.131 25.6174 111.275 25.7236 111.371C25.8297 111.466 25.9543 111.513 26.0969 111.513Z" fill="black"/>
<path d="M115.77 83.3541C115.77 77.6698 111.154 73.0617 105.46 73.0617C99.7655 73.0617 95.1494 77.6698 95.1494 83.3541V200.002C95.1494 205.686 99.7655 210.294 105.46 210.294C111.154 210.294 115.77 205.686 115.77 200.002V83.3541Z" fill="#B0FF00"/>
<path d="M105.459 91.5023C109.73 91.5023 113.192 88.0462 113.192 83.783C113.192 79.5197 109.73 76.0637 105.459 76.0637C101.189 76.0637 97.7266 79.5197 97.7266 83.783C97.7266 88.0462 101.189 91.5023 105.459 91.5023Z" fill="white"/>
<path d="M102.668 81.7559V85.4985H101.876V82.5068H101.854L100.995 83.0441V82.3425L101.923 81.7559H102.668ZM104.929 85.5495C104.67 85.5495 104.44 85.5023 104.237 85.4071C104.045 85.3202 103.88 85.1848 103.757 85.0143C103.639 84.8463 103.574 84.6461 103.572 84.4405H104.341C104.35 84.5854 104.411 84.7029 104.524 84.793C104.638 84.883 104.773 84.9281 104.929 84.9281C105.053 84.9281 105.163 84.9011 105.258 84.8462C105.355 84.79 105.43 84.7128 105.484 84.6142C105.54 84.5084 105.568 84.39 105.566 84.2702C105.566 84.139 105.538 84.0232 105.482 83.9233C105.429 83.8254 105.35 83.7443 105.253 83.6891C105.15 83.632 105.035 83.6025 104.918 83.6034C104.808 83.6035 104.699 83.6266 104.598 83.6711C104.503 83.7102 104.42 83.7739 104.358 83.8555L103.653 83.7294L103.83 81.7559H106.122V82.4026H104.484L104.387 83.34H104.409C104.475 83.2474 104.574 83.1706 104.707 83.1097C104.848 83.0473 105 83.0162 105.154 83.0184C105.38 83.0184 105.581 83.0716 105.758 83.1775C105.935 83.2834 106.075 83.4292 106.177 83.6145C106.28 83.7985 106.331 84.0103 106.329 84.2501C106.335 84.4863 106.274 84.7194 106.154 84.9229C106.035 85.1188 105.865 85.2782 105.661 85.3835C105.451 85.4942 105.207 85.5495 104.929 85.5495ZM108.352 85.5808C108.037 85.5795 107.766 85.5023 107.54 85.3488C107.314 85.1953 107.14 84.9727 107.018 84.6815C106.897 84.3903 106.837 84.0399 106.838 83.6308C106.838 83.2225 106.899 82.8747 107.019 82.5874C107.142 82.2997 107.315 82.0809 107.541 81.9313C107.768 81.7803 108.039 81.7044 108.352 81.7044C108.666 81.7044 108.936 81.7803 109.161 81.9313C109.389 82.0822 109.563 82.3014 109.685 82.5891C109.807 82.8756 109.868 83.2225 109.866 83.6308C109.866 84.0412 109.805 84.392 109.683 84.6832C109.562 84.9744 109.389 85.197 109.163 85.3505C108.937 85.504 108.667 85.5808 108.352 85.5808ZM108.352 84.9247C108.567 84.9247 108.739 84.817 108.867 84.6013C108.995 84.3856 109.058 84.0622 109.057 83.6308C109.057 83.3469 109.028 83.1106 108.969 82.9215C108.912 82.7328 108.83 82.5908 108.724 82.4961C108.623 82.4025 108.49 82.3514 108.352 82.3533C108.139 82.3533 107.968 82.46 107.84 82.6732C107.711 82.8863 107.647 83.2054 107.646 83.6308C107.646 83.9181 107.674 84.1583 107.732 84.3508C107.79 84.5421 107.872 84.6858 107.979 84.7823C108.085 84.877 108.209 84.9247 108.352 84.9247Z" fill="black"/>
<path d="M143.264 109.514C143.264 103.83 138.648 99.2217 132.954 99.2217C127.26 99.2217 122.644 103.83 122.644 109.514V200.002C122.644 205.686 127.26 210.294 132.954 210.294C138.648 210.294 143.264 205.686 143.264 200.002V109.514Z" fill="#ECEEF1"/>
<path d="M132.953 118.091C137.224 118.091 140.686 114.635 140.686 110.372C140.686 106.109 137.224 102.653 132.953 102.653C128.683 102.653 125.221 106.109 125.221 110.372C125.221 114.635 128.683 118.091 132.953 118.091Z" fill="#D9D9D9"/>
<path d="M130.164 108.345V112.087H129.371V109.096H129.349L128.49 109.633V108.931L129.419 108.345H130.164ZM132.525 112.17C132.21 112.168 131.939 112.091 131.712 111.938C131.486 111.784 131.312 111.561 131.19 111.27C131.07 110.979 131.009 110.629 131.011 110.22C131.011 109.811 131.071 109.463 131.192 109.176C131.314 108.888 131.488 108.67 131.714 108.52C131.941 108.369 132.211 108.293 132.525 108.293C132.838 108.293 133.108 108.369 133.334 108.52C133.561 108.671 133.736 108.89 133.858 109.178C133.98 109.464 134.04 109.811 134.039 110.22C134.039 110.63 133.977 110.981 133.855 111.272C133.735 111.563 133.562 111.786 133.336 111.939C133.11 112.093 132.839 112.17 132.525 112.17ZM132.525 111.513C132.739 111.513 132.911 111.406 133.039 111.19C133.167 110.974 133.231 110.651 133.23 110.22C133.23 109.936 133.2 109.699 133.141 109.51C133.084 109.322 133.003 109.18 132.896 109.085C132.795 108.991 132.662 108.94 132.525 108.942C132.311 108.942 132.14 109.049 132.012 109.262C131.884 109.475 131.819 109.794 131.818 110.22C131.818 110.507 131.847 110.747 131.904 110.94C131.963 111.131 132.045 111.275 132.151 111.371C132.257 111.466 132.382 111.513 132.525 111.513ZM136.074 112.17C135.759 112.168 135.488 112.091 135.261 111.938C135.035 111.784 134.862 111.561 134.74 111.27C134.618 110.979 134.559 110.629 134.56 110.22C134.56 109.811 134.621 109.463 134.741 109.176C134.863 108.888 135.037 108.67 135.263 108.52C135.49 108.369 135.76 108.293 136.074 108.293C136.387 108.293 136.657 108.369 136.883 108.52C137.11 108.671 137.284 108.89 137.406 109.178C137.528 109.464 137.589 109.811 137.588 110.22C137.588 110.63 137.527 110.981 137.405 111.272C137.284 111.563 137.11 111.786 136.885 111.939C136.659 112.093 136.389 112.17 136.074 112.17ZM136.074 111.513C136.289 111.513 136.46 111.406 136.589 111.19C136.717 110.974 136.78 110.651 136.779 110.22C136.779 109.936 136.75 109.699 136.691 109.51C136.634 109.322 136.552 109.18 136.445 109.085C136.345 108.991 136.212 108.94 136.074 108.942C135.86 108.942 135.689 109.049 135.561 109.262C135.433 109.475 135.368 109.794 135.367 110.22C135.367 110.507 135.396 110.747 135.453 110.94C135.512 111.131 135.594 111.275 135.701 111.371C135.807 111.466 135.931 111.513 136.074 111.513Z" fill="black"/>
</g>
<defs>
<clipPath id="clip0_264_28960">
<rect width="155" height="200" fill="white"/>
</clipPath>
</defs>
</svg>
